<svg xmlns="http://www.w3.org/2000/svg" xmlns:xlink="http://www.w3.org/1999/xlink" preserveAspectRatio="xMidYMid meet" version="1.1" viewBox="52.5 53.2 317.9 309.3" zoomAndPan="magnify" style="fill: rgb(0, 0, 0);" original_string_length="5246" width="134.37888067929566px" height="130.46967687771613px">
 <g id="__id6_sz2oagwq7">
  <g id="__id7_sz2oagwq7"><path d="m136.16 351.51l-21.53-8.21c-4.26-4.44-8.7-10.46-7.67-15.57 1.9-9.38 26.11-73.46 26.11-73.46 28.44-12.73 39.83-24.34 46-40.51 6.16-16.17 26.82-88.01 26.82-88.01l-22.87-8.73-3.59-1.37-22.87-8.72s-32.43 67.35-38.6 83.53c-6.16 16.17-6.5 31.76 6.24 60.2 0 0-23.51 64.57-28.345 72.84-2.628 4.49-9.949 6.03-16.078 6.5l-17.941-6.84c-2.168-0.82-4.582 0.09-5.719 2.04l82.953 31.64c0.45-2.21-0.74-4.5-2.91-5.33" style="fill: rgb(255, 255, 255);"/></g>
  <g id="__id8_sz2oagwq7"><path d="m85.746 332.75l22.594 8.62c-4.04-5.3-5.66-10.1-4.8-14.33 1.92-9.55 25.27-71.38 26.26-74 0.33-0.87 0.99-1.58 1.84-1.96 29.57-13.24 38.82-24.57 44.16-38.57 5.31-13.95 21.81-70.71 25.84-84.64l-43.32-16.52c-6.27 13.07-31.77 66.4-37.08 80.35-5.57 14.6-6.48 29.31 6.15 57.53 0.38 0.83 0.41 1.77 0.1 2.63-0.97 2.64-23.67 64.97-28.611 73.41-2.176 3.71-6.582 6.22-13.133 7.48zm53.324 27.59c-0.42 0-0.84-0.08-1.25-0.23l-82.949-31.64c-0.961-0.37-1.711-1.14-2.051-2.11-0.343-0.97-0.242-2.04 0.274-2.93 1.465-2.51 4.183-4.07 7.094-4.07 0.992 0 1.968 0.18 2.898 0.53l17.191 6.56c6.594-0.61 11.149-2.31 12.559-4.72 3.742-6.4 20.734-52.14 27.594-70.94-13.02-29.59-11.85-45.55-5.73-61.58 6.15-16.13 37.38-81.04 38.7-83.8 0.8-1.64 2.71-2.4 4.4-1.75l49.34 18.82c1.7 0.64 2.62 2.49 2.12 4.23-0.85 2.94-20.78 72.17-26.92 88.3-6.86 17.96-19.95 29.78-46.5 41.86-8.48 22.45-24.02 64.5-25.45 71.56-0.55 2.73 1.72 7.04 6.23 11.88l20.79 7.93c3.76 1.43 5.9 5.34 5.09 9.3-0.2 1-0.84 1.87-1.74 2.36-0.53 0.29-1.1 0.44-1.69 0.44" style="fill: rgb(35, 31, 31);"/></g>
  <g id="__id9_sz2oagwq7"><path d="m129.49 239.57c-7.81-18.78-6.99-28.96-3.1-39.15 1.6-4.2 5.79-13.56 12.45-27.84l36.31 13.85c-4.48 14.9-7.67 24.92-9.25 29.06-3.61 9.48-10 17.71-29.11 26.86l-7.3-2.78" style="fill: rgb(255, 255, 255);"/></g>
  <g id="__id10_sz2oagwq7"><path d="m137.05 168.15c-5.96 12.74-11.88 25.64-13.93 31.02-4.48 11.76-4.85 23.13 3.73 43.14l10.08 3.84c19.64-9.16 27.77-17.7 32.24-29.42 2.05-5.38 6.24-18.94 10.27-32.41zm3.59 8.86l30.22 11.53c-4.93 16.31-7.2 22.99-8.23 25.7-3.33 8.72-8.94 15.91-26.01 24.3l-4.46-1.7c-6.81-16.88-6.08-25.8-2.5-35.17 1.03-2.71 3.79-9.19 10.98-24.66" style="fill: rgb(35, 31, 31);"/></g>
  <g id="__id11_sz2oagwq7"><path d="m285.18 353.88l22-6.86c4.53-4.16 9.34-9.89 8.62-15.05-1.3-9.48-21.48-74.94-21.48-74.94-27.58-14.48-38.22-26.78-43.37-43.31-5.15-16.52-21.29-89.51-21.29-89.51l23.37-7.28 3.67-1.14 23.37-7.29s28.16 69.25 33.31 85.77c5.15 16.53 4.51 32.11-9.97 59.7 0 0 19.43 65.92 23.75 74.47 2.34 4.65 9.55 6.64 15.64 7.49l18.33-5.71c2.22-0.69 4.57 0.37 5.58 2.39l-84.76 26.41c-0.32-2.24 1.01-4.45 3.23-5.14" style="fill: rgb(255, 255, 255);"/></g>
  <g id="__id12_sz2oagwq7"><path d="m233.77 126.59c3.15 14.15 16.08 71.84 20.52 86.09 4.46 14.3 12.98 26.19 41.66 41.25 0.83 0.43 1.44 1.18 1.72 2.07 0.83 2.68 20.27 65.84 21.6 75.49 0.59 4.27-1.32 8.97-5.69 14l23.09-7.19c-6.46-1.67-10.7-4.44-12.64-8.29-4.4-8.73-23.18-72.35-23.98-75.05-0.26-0.87-0.16-1.81 0.26-2.62 14.37-27.37 14.38-42.11 9.73-57.02-4.44-14.26-26.56-69.08-32-82.52zm48.18 235.93c-0.66 0-1.31-0.19-1.88-0.55-0.87-0.55-1.45-1.45-1.59-2.47-0.56-4 1.82-7.77 5.66-8.96l21.24-6.62c4.81-4.55 7.34-8.71 6.96-11.47-1.02-7.36-15.06-53.9-20.93-73.01-25.76-13.71-38.09-26.32-43.8-44.67-5.14-16.48-20.71-86.82-21.37-89.81-0.39-1.77 0.64-3.55 2.37-4.09l50.42-15.71c1.74-0.54 3.6 0.34 4.28 2.03 1.15 2.83 28.28 69.56 33.41 86.04 5.11 16.39 5.28 32.39-9.56 61.11 5.68 19.19 19.78 65.9 23.12 72.52 1.26 2.49 5.7 4.48 12.24 5.49l17.57-5.47c0.79-0.25 1.6-0.37 2.42-0.37 3.07 0 5.95 1.78 7.33 4.53 0.46 0.92 0.49 1.99 0.09 2.94-0.4 0.94-1.2 1.66-2.18 1.97l-84.77 26.41c-0.34 0.1-0.69 0.16-1.03 0.16" style="fill: rgb(35, 31, 31);"/></g>
  <g id="__id13_sz2oagwq7"><path d="m291.36 244.89c-18.5-10.32-24.36-18.93-27.38-28.62-1.32-4.24-3.88-14.44-7.42-29.58l37.1-11.56c5.69 14.48 9.38 24.33 10.7 28.56 3.24 10.42 3.43 20.62-5.54 38.88l-7.46 2.32" style="fill: rgb(255, 255, 255);"/></g>
  <g id="__id14_sz2oagwq7"><path d="m295.73 170.82l-43.32 13.5c3.18 13.69 6.52 27.49 8.23 32.99 3.73 11.97 11.31 21 30.34 31.37l10.3-3.21c9.81-19.43 10.16-30.81 6.42-42.82-1.72-5.5-6.81-18.75-11.97-31.83zm-4.14 8.62c6.21 15.87 8.56 22.52 9.42 25.29 2.99 9.58 3.16 18.53-4.68 34.95l-4.56 1.42c-16.52-9.43-21.67-16.96-24.45-25.87-0.86-2.78-2.7-9.59-6.61-26.17l30.88-9.62" style="fill: rgb(35, 31, 31);"/></g>
  <g id="__id15_sz2oagwq7"><path d="m245.38 100.36l32.33-33.333" style="fill: rgb(255, 255, 255);"/></g>
  <g id="__id16_sz2oagwq7"><path d="m245.37 103.86c-0.87 0-1.75-0.33-2.43-0.99-1.39-1.34-1.42-3.558-0.08-4.948l32.34-33.332c1.34-1.387 3.56-1.418 4.94-0.074 1.39 1.343 1.42 3.562 0.08 4.949l-32.33 33.335c-0.69 0.7-1.6 1.06-2.52 1.06" style="fill: rgb(35, 31, 31);"/></g>
  <g id="__id17_sz2oagwq7"><path d="m191.06 100.36l-32.33-33.333" style="fill: rgb(255, 255, 255);"/></g>
  <g id="__id18_sz2oagwq7"><path d="m191.06 103.86c-0.91 0-1.83-0.36-2.51-1.06l-32.34-33.335c-1.34-1.387-1.31-3.606 0.08-4.949 1.39-1.348 3.6-1.313 4.95 0.074l32.33 33.332c1.35 1.39 1.32 3.608-0.07 4.948-0.68 0.66-1.56 0.99-2.44 0.99" style="fill: rgb(35, 31, 31);"/></g>
  <g id="__id19_sz2oagwq7"><path d="m221.04 101.19c-1.93 0-3.5-1.561-3.5-3.499v-41c0-1.929 1.57-3.5 3.5-3.5s3.5 1.571 3.5 3.5v41c0 1.938-1.57 3.499-3.5 3.499" style="fill: rgb(35, 31, 31);"/></g>
 </g>
</svg>