<svg xmlns="http://www.w3.org/2000/svg" xmlns:xlink="http://www.w3.org/1999/xlink" preserveAspectRatio="xMidYMid meet" version="1.0" viewBox="0.0 0.0 1612.3 115.7" zoomAndPan="magnify" style="fill: rgb(0, 0, 0);" original_string_length="8865" width="348.95102047729006px" height="25.110619339556862px"><defs><clipPath id="__id0_sz2oagwq7"><path d="M 0 0 L 1612.289062 0 L 1612.289062 115.699219 L 0 115.699219 Z M 0 0"/></clipPath></defs><g><g clip-path="url(#__id0_sz2oagwq7)" id="__id1_sz2oagwq7"><path d="M 832.410156 56.140625 C 830.5 52.171875 830.046875 50.011719 828.730469 48.757812 C 826.210938 46.363281 823.324219 44.269531 820.328125 42.496094 C 819.199219 41.828125 817.339844 42.386719 814.964844 42.386719 C 818.902344 48.875 823.480469 52.925781 832.410156 56.140625 Z M 796.824219 42.589844 C 795.429688 42.328125 794.308594 41.753906 793.449219 42.019531 C 788.472656 43.542969 784.445312 46.433594 782.054688 51.152344 C 781.542969 52.160156 781.855469 53.585938 781.753906 55.480469 C 788.851562 52.753906 793.808594 49.097656 796.824219 42.589844 Z M 90.753906 74.976562 C 90.390625 73.207031 90.449219 72.023438 89.933594 71.207031 C 81.535156 57.929688 70.308594 48.273438 54.910156 43.957031 C 44.070312 40.921875 33.046875 39.273438 21.777344 39.574219 C 20.625 39.605469 19.492188 40.398438 18.144531 40.914062 C 38.601562 68.574219 66.371094 79.929688 90.753906 74.976562 Z M 1593.640625 39.992188 C 1592.03125 39.804688 1590.738281 39.535156 1589.441406 39.523438 C 1579.28125 39.414062 1569.351562 40.976562 1559.488281 43.402344 C 1543.539062 47.328125 1531.859375 56.90625 1522.921875 70.277344 C 1521.921875 71.765625 1520.960938 73.351562 1522.308594 75.164062 C 1545.839844 80.671875 1578.289062 66.113281 1593.640625 39.992188 Z M 806.15625 28.988281 C 826.828125 14.535156 850.46875 9.40625 874.375 4.90625 C 905.964844 -1.039062 937.78125 -0.703125 969.621094 1.371094 C 988.390625 2.589844 1007.121094 4.550781 1025.820312 6.613281 C 1058.300781 10.199219 1089.769531 18.355469 1121.039062 27.636719 C 1170.609375 42.347656 1220.28125 56.714844 1269.988281 70.9375 C 1290.171875 76.707031 1310.671875 81.21875 1331.570312 83.621094 C 1343.328125 84.972656 1354.660156 83.648438 1365.398438 78.394531 C 1367.339844 77.445312 1369.351562 76.359375 1371.429688 76.097656 C 1372.988281 75.898438 1375.300781 76.429688 1376.179688 77.523438 C 1377.058594 78.605469 1376.929688 80.882812 1376.550781 82.472656 C 1376.191406 83.996094 1374.949219 85.308594 1373.640625 87.460938 C 1390.191406 88.082031 1405.691406 89.820312 1421.230469 87.800781 C 1435.148438 85.992188 1447.800781 80.824219 1458.980469 72.402344 C 1462.679688 69.613281 1465.578125 65.757812 1468.941406 62.484375 C 1470.191406 61.265625 1471.578125 60.03125 1473.140625 59.320312 C 1475.878906 58.070312 1479.449219 60.949219 1478.769531 63.820312 C 1478.371094 65.523438 1477.691406 67.355469 1476.589844 68.652344 C 1473.539062 72.21875 1470.199219 75.535156 1466.96875 78.945312 C 1466.058594 79.910156 1465.109375 80.847656 1463.011719 83.003906 C 1466.738281 83.003906 1468.808594 83.382812 1470.679688 82.941406 C 1481.941406 80.289062 1493.140625 77.402344 1504.378906 74.691406 C 1507.75 73.878906 1510.398438 72.332031 1511.878906 69.082031 C 1512.179688 68.425781 1512.640625 67.847656 1513.011719 67.226562 C 1525.441406 46.71875 1543.648438 34.925781 1567.261719 31.378906 C 1579.089844 29.601562 1591 28.6875 1602.980469 29.214844 C 1604.769531 29.292969 1606.601562 29.441406 1608.308594 29.941406 C 1612.101562 31.058594 1613.460938 35.421875 1611.179688 38.753906 C 1610.980469 39.050781 1610.75 39.34375 1610.5 39.597656 C 1600.191406 49.757812 1590.75 61.035156 1579.390625 69.820312 C 1560.878906 84.125 1539.488281 89.882812 1516.070312 84.386719 C 1512.308594 83.503906 1509.070312 83.828125 1505.511719 84.863281 C 1491.261719 89.019531 1476.820312 92.277344 1462.121094 94.492188 C 1446.339844 96.867188 1430.53125 98.515625 1414.558594 98.488281 C 1412.128906 98.480469 1409.691406 98.484375 1407.429688 98.484375 C 1406.53125 101.691406 1408.699219 102.183594 1409.929688 103.292969 C 1411.800781 104.972656 1413.820312 106.515625 1415.5 108.367188 C 1416.910156 109.921875 1416.679688 113.152344 1414.929688 114.21875 C 1413.578125 115.046875 1411.539062 115.425781 1410.011719 115.097656 C 1408.351562 114.738281 1406.890625 113.375 1405.398438 112.355469 C 1392.261719 103.347656 1377.53125 98.734375 1361.890625 96.816406 C 1347.53125 95.054688 1333.140625 93.554688 1318.761719 91.972656 C 1316.988281 91.777344 1315.199219 91.789062 1313.601562 91.714844 C 1311.871094 93.914062 1310.359375 95.824219 1308.589844 98.066406 C 1306.429688 97.136719 1304.199219 96.691406 1302.648438 95.421875 C 1294.320312 88.585938 1284.570312 85.339844 1274.328125 82.441406 C 1223.539062 68.054688 1172.828125 53.363281 1122.191406 38.433594 C 1096.160156 30.757812 1070.058594 23.511719 1043.21875 19.097656 C 1020.339844 15.332031 997.289062 13.210938 974.179688 11.621094 C 964.429688 10.953125 954.664062 10.453125 944.898438 10.070312 C 907.664062 8.613281 871.25 13.480469 835.703125 24.628906 C 830.625 26.21875 825.277344 27.566406 820.5625 31.828125 C 823.769531 33.566406 826.601562 34.902344 829.230469 36.554688 C 837.835938 41.964844 842.242188 49.941406 842.871094 59.976562 C 843.191406 65.136719 839.777344 68.234375 834.683594 67.390625 C 826.609375 66.046875 819.640625 62.300781 813.671875 56.761719 C 811.296875 54.554688 809.191406 52.054688 806.46875 49.160156 C 804.71875 50.832031 802.941406 52.378906 801.34375 54.09375 C 795.789062 60.054688 789.238281 64.359375 781.335938 66.542969 C 771.988281 69.121094 768.042969 65.546875 769.871094 56.3125 C 771.753906 46.824219 776.75 39.726562 785.375 35.257812 C 787.289062 34.265625 789.238281 33.347656 791.976562 32 C 789.84375 30.585938 788.339844 29.261719 786.589844 28.484375 C 772.613281 22.261719 757.796875 18.828125 742.871094 15.992188 C 714.304688 10.570312 685.527344 8.257812 656.441406 10.769531 C 636.976562 12.453125 617.449219 13.464844 598.003906 15.296875 C 563.292969 18.566406 529.59375 26.660156 496.230469 36.636719 C 447.039062 51.351562 397.660156 65.433594 348.355469 79.765625 C 345.578125 80.574219 342.785156 81.347656 339.960938 81.957031 C 328.496094 84.417969 317.742188 88.378906 308.691406 96.175781 C 307.667969 97.058594 306.117188 97.332031 304.339844 98.089844 C 302.417969 95.964844 300.578125 93.933594 298.410156 91.539062 C 290.097656 92.589844 281.507812 93.726562 272.902344 94.738281 C 267.515625 95.371094 262.117188 95.988281 256.703125 96.308594 C 238.246094 97.402344 221.152344 102.503906 205.863281 113.136719 C 204.679688 113.957031 203.457031 114.761719 202.152344 115.363281 C 200.242188 116.246094 197.292969 115.335938 196.65625 113.308594 C 196.179688 111.796875 196.125 109.550781 196.945312 108.367188 C 198.339844 106.351562 200.558594 104.902344 202.460938 103.25 C 203.53125 102.316406 204.667969 101.460938 205.691406 100.636719 C 204.96875 97.796875 202.859375 98.53125 201.289062 98.539062 C 169.207031 98.65625 137.835938 93.851562 107.082031 84.90625 C 103.121094 83.753906 99.558594 83.726562 95.472656 84.605469 C 72.472656 89.558594 51.800781 83.554688 33.027344 70.136719 C 28.929688 67.210938 25.300781 63.574219 21.71875 60.003906 C 15.054688 53.355469 8.472656 46.621094 2.074219 39.722656 C -1.875 35.464844 0.0625 30.449219 5.796875 29.441406 C 6.859375 29.257812 7.957031 29.234375 9.042969 29.207031 C 22.832031 28.867188 36.480469 29.828125 50.078125 32.445312 C 71.28125 36.527344 87.339844 47.96875 98.453125 66.113281 C 101.800781 71.582031 105.917969 74.566406 111.773438 75.957031 C 121.269531 78.210938 130.742188 80.59375 140.265625 82.734375 C 142.648438 83.273438 145.195312 83.097656 149.367188 83.355469 C 146.101562 80.050781 143.765625 77.976562 141.785156 75.605469 C 139.027344 72.300781 136.355469 68.894531 134.007812 65.296875 C 132.820312 63.484375 133.933594 60.195312 135.753906 59.722656 C 137.339844 59.3125 139.304688 59.464844 140.839844 60.050781 C 142.054688 60.515625 142.976562 61.933594 143.859375 63.0625 C 154.484375 76.644531 169.355469 83.269531 185.4375 86.871094 C 202.839844 90.765625 220.511719 88.121094 239.195312 87.472656 C 237.402344 84.960938 236.144531 83.714844 235.554688 82.203125 C 235.09375 81.023438 234.917969 79.046875 235.59375 78.261719 C 236.625 77.058594 238.429688 76.1875 240.03125 75.910156 C 241.320312 75.6875 242.941406 76.300781 244.164062 76.988281 C 259.652344 85.679688 276.011719 84.902344 292.757812 82.03125 C 317.402344 77.804688 341.566406 71.628906 365.53125 64.660156 C 412.058594 51.132812 458.527344 37.40625 504.996094 23.675781 C 537.359375 14.113281 570.3125 7.753906 603.90625 4.492188 C 627.703125 2.179688 651.523438 0.679688 675.421875 0.09375 C 704.199219 -0.617188 732.5 2.867188 760.417969 9.550781 C 776.664062 13.441406 792.292969 19.046875 806.15625 28.988281" style="fill: rgb(191, 36, 50);"/></g></g></svg>