<svg xmlns="http://www.w3.org/2000/svg" xmlns:xlink="http://www.w3.org/1999/xlink" preserveAspectRatio="xMidYMid meet" version="1.0" viewBox="0.0 0.0 12.0 17.3" zoomAndPan="magnify" style="fill: rgb(0, 0, 0);" original_string_length="560" width="36.55156676202357px" height="51.81278793585815px"><g id="__id5_sz2oagwq7"><path d="M6.4,16.8C6.63,16.49,12,9.17,12,6A6,6,0,0,0,0,6C0,9.17,5.37,16.49,5.6,16.8l.4.54ZM1,6A5,5,0,0,1,11,6c0,2.17-3.3,7.26-5,9.65C4.3,13.26,1,8.17,1,6Z" style="fill: inherit;"/><path d="M7.5,6A1.5,1.5,0,1,0,6,7.5,1.5,1.5,0,0,0,7.5,6Zm-2,0a.5.5,0,1,1,.5.5A.5.5,0,0,1,5.5,6Z" style="fill: inherit;"/></g></svg>