<svg xmlns="http://www.w3.org/2000/svg" xmlns:xlink="http://www.w3.org/1999/xlink" preserveAspectRatio="xMidYMid meet" version="1.0" viewBox="0.0 0.0 458.9 500.0" zoomAndPan="magnify" style="fill: rgb(0, 0, 0);" original_string_length="9220" width="61.14674980933285px" height="66.59547008937243px"><g id="__id42_sz2oagwq7"><path d="M336.72,55.19c-10.3,0-18.69-8.38-18.69-18.69s8.38-18.69,18.69-18.69c10.3,0,18.68,8.38,18.68,18.69 S347.02,55.19,336.72,55.19z M336.72,25.77c-5.92,0-10.73,4.81-10.73,10.73s4.81,10.73,10.73,10.73c5.92,0,10.73-4.81,10.73-10.73 S342.64,25.77,336.72,25.77z" style="fill: rgb(244, 190, 106);"/></g><g id="__id43_sz2oagwq7"><path d="M45.87,112.62c-10.3,0-18.69-8.38-18.69-18.69s8.38-18.69,18.69-18.69s18.69,8.38,18.69,18.69 S56.17,112.62,45.87,112.62z M45.87,83.2c-5.92,0-10.73,4.81-10.73,10.73c0,5.92,4.81,10.73,10.73,10.73S56.6,99.85,56.6,93.93 C56.6,88.02,51.79,83.2,45.87,83.2z" style="fill: rgb(244, 190, 106);"/></g><g id="__id44_sz2oagwq7"><circle cx="75.18" cy="243.69" r="10.51" style="fill: rgb(244, 190, 106);"/></g><g id="__id45_sz2oagwq7"><path d="M365.93,236.58c-7.99,0-14.48-6.5-14.48-14.48c0-7.99,6.5-14.48,14.48-14.48s14.48,6.5,14.48,14.48 C380.42,230.08,373.92,236.58,365.93,236.58z M365.93,215.56c-3.6,0-6.53,2.93-6.53,6.53c0,3.6,2.93,6.53,6.53,6.53 s6.53-2.93,6.53-6.53C372.46,218.49,369.53,215.56,365.93,215.56z" style="fill: rgb(244, 190, 106);"/></g><g id="__id46_sz2oagwq7"><circle cx="439.93" cy="80.04" r="8.7" style="fill: rgb(244, 190, 106);"/></g><g id="__id47_sz2oagwq7"><circle cx="143.33" cy="80.04" r="8.7" style="fill: rgb(244, 190, 106);"/></g><g style="fill: rgb(244, 190, 106);"><g id="__id48_sz2oagwq7"><path d="M371.46 115.39H379.40999999999997V126.83H371.46z" style="fill: inherit;"/><path d="M371.46 134.4H379.40999999999997V145.84H371.46z" style="fill: inherit;"/></g><g id="__id49_sz2oagwq7"><path d="M379.22 126.64H390.66V134.59H379.22z" style="fill: inherit;"/><path d="M360.21 126.64H371.65V134.59H360.21z" style="fill: inherit;"/></g></g><g style="fill: rgb(244, 190, 106);"><g id="__id50_sz2oagwq7"><path d="M439.74 262.9H447.69V274.34H439.74z" style="fill: inherit;"/><path d="M439.74 281.92H447.69V293.36H439.74z" style="fill: inherit;"/></g><g id="__id51_sz2oagwq7"><path d="M447.5 274.15H458.94V282.09999999999997H447.5z" style="fill: inherit;"/><path d="M428.49 274.15H439.93V282.09999999999997H428.49z" style="fill: inherit;"/></g></g><g style="fill: rgb(244, 190, 106);"><g id="__id52_sz2oagwq7"><path d="M11.25 166.97H19.2V178.41H11.25z" style="fill: inherit;"/><path d="M11.25 185.98H19.2V197.42H11.25z" style="fill: inherit;"/></g><g id="__id53_sz2oagwq7"><path d="M19.01 178.22H30.450000000000003V186.17H19.01z" style="fill: inherit;"/><path d="M0 178.22H11.44V186.17H0z" style="fill: inherit;"/></g></g><g style="fill: rgb(244, 190, 106);"><g id="__id54_sz2oagwq7"><path d="M86.43 27.43H94.38000000000001V38.87H86.43z" style="fill: inherit;"/><path d="M86.43 46.44H94.38000000000001V57.879999999999995H86.43z" style="fill: inherit;"/></g><g id="__id55_sz2oagwq7"><path d="M94.19 38.68H105.63V46.63H94.19z" style="fill: inherit;"/><path d="M75.18 38.68H86.62V46.63H75.18z" style="fill: inherit;"/></g></g><g><g id="__id56_sz2oagwq7"><path d="M213.14 69.68L213.14 36.02 194.29 36.02 194.29 19.77 213.14 19.77 213.14 0 229.39 0 229.39 19.77 248.24 19.77 248.24 36.02 229.39 36.02 229.39 69.88" style="fill: rgb(213, 119, 70);"/></g><g><g><g id="__id57_sz2oagwq7"><path d="M288.95 187.42L283.2 185.83 299.2 128.14 315.19 185.83 309.44 187.42 299.2 150.46z" style="fill: rgb(244, 190, 106);"/></g><g id="__id58_sz2oagwq7" style="fill: rgb(213, 119, 70);"><path d="M338.7,421.23l-0.12-26.16c-0.16-15.91,10.34-23.41,10.34-23.41s10.52,7.53,10.4,23.44l-0.08,26.16 L338.7,421.23z" style="fill: inherit;"/><path d="M376.86,421.23l-0.12-26.16c-0.16-15.91,10.34-23.41,10.34-23.41s10.52,7.53,10.4,23.44l-0.08,26.16 L376.86,421.23z" style="fill: inherit;"/></g><g id="__id59_sz2oagwq7"><path d="M325.11,466.79h-51.52V255.66h51.52V466.79z M279.55,460.83h39.59v-199.2h-39.59V460.83z" style="fill: rgb(244, 190, 106);"/></g><g id="__id60_sz2oagwq7" style="fill: rgb(244, 190, 106);"><path d="M276.57 362.66H322.13V368.62H276.57z" style="fill: inherit;"/><path d="M276.57 379.4H322.13V385.35999999999996H276.57z" style="fill: inherit;"/></g><g id="__id61_sz2oagwq7" style="fill: rgb(244, 190, 106);"><path d="M276.57 411.74H322.13V417.7H276.57z" style="fill: inherit;"/><path d="M276.57 428.49H322.13V434.45H276.57z" style="fill: inherit;"/></g><g id="__id62_sz2oagwq7"><path d="M415.55,466.79h-96.41V338.54h96.41V466.79z M325.11,460.83h84.48V344.5h-84.48V460.83z" style="fill: rgb(244, 190, 106);"/></g><g id="__id63_sz2oagwq7"><path d="M356.41 252.39H362.37V357.78H356.41z" transform="rotate(-45.001 359.388 305.094)" style="fill: rgb(244, 190, 106);"/></g><g id="__id64_sz2oagwq7"><path d="M284.51 196.4H314.81V202.36H284.51z" style="fill: rgb(244, 190, 106);"/></g><g id="__id65_sz2oagwq7"><path d="M317.79,261.62h-36.26v-77.98h36.26V261.62z M287.49,255.66h24.34v-66.05h-24.34V255.66z" style="fill: rgb(244, 190, 106);"/></g></g><g><g id="__id66_sz2oagwq7"><path d="M153.58 187.42L143.33 150.46 133.08 187.42 127.33 185.83 143.33 128.14 159.32 185.83z" style="fill: rgb(244, 190, 106);"/></g><g id="__id67_sz2oagwq7" style="fill: rgb(213, 119, 70);"><path d="M103.82,421.23l0.12-26.16c0.16-15.91-10.34-23.41-10.34-23.41s-10.52,7.53-10.4,23.44l0.08,26.16 L103.82,421.23z" style="fill: inherit;"/><path d="M65.67,421.23l0.12-26.16c0.16-15.91-10.34-23.41-10.34-23.41s-10.52,7.53-10.4,23.44l0.08,26.16 L65.67,421.23z" style="fill: inherit;"/></g><g id="__id68_sz2oagwq7"><path d="M168.93,466.79h-51.52V255.66h51.52V466.79z M123.38,460.83h39.59v-199.2h-39.59V460.83z" style="fill: rgb(244, 190, 106);"/></g><g id="__id69_sz2oagwq7" style="fill: rgb(244, 190, 106);"><path d="M120.4 362.66H165.96V368.62H120.4z" style="fill: inherit;"/><path d="M120.4 379.4H165.96V385.35999999999996H120.4z" style="fill: inherit;"/></g><g id="__id70_sz2oagwq7" style="fill: rgb(244, 190, 106);"><path d="M120.4 411.74H165.96V417.7H120.4z" style="fill: inherit;"/><path d="M120.4 428.49H165.96V434.45H120.4z" style="fill: inherit;"/></g><g id="__id71_sz2oagwq7"><path d="M123.38,466.79H26.97V338.54h96.41V466.79z M32.94,460.83h84.48V344.5H32.94V460.83z" style="fill: rgb(244, 190, 106);"/></g><g id="__id72_sz2oagwq7"><path d="M30.44 302.11H135.83V308.07H30.44z" transform="rotate(-45.001 83.13 305.09)" style="fill: rgb(244, 190, 106);"/></g><g id="__id73_sz2oagwq7"><path d="M127.72 196.4H158.02V202.36H127.72z" style="fill: rgb(244, 190, 106);"/></g><g id="__id74_sz2oagwq7"><path d="M161,261.62h-36.26v-77.98H161V261.62z M130.7,255.66h24.33v-66.05H130.7V255.66z" style="fill: rgb(244, 190, 106);"/></g></g></g><g id="__id75_sz2oagwq7"><path d="M282.89 229.15L221.26 162.89 159.64 229.15 155.27 225.08 221.26 154.13 287.25 225.08z" style="fill: rgb(244, 190, 106);"/></g><g id="__id76_sz2oagwq7"><path d="M166.7 218.56L160.73 218.56 160.73 126.92 221.22 59.07 281.79 124.19 281.79 218.16 275.83 218.16 275.83 126.54 221.31 67.92 166.7 129.19z" style="fill: rgb(244, 190, 106);"/></g><g id="__id77_sz2oagwq7"><path d="M247.93,463.81h-53.33v-62.33c0-14.59,11.94-26.42,26.67-26.42h0c14.73,0,26.67,11.83,26.67,26.42V463.81z" style="fill: rgb(213, 119, 70);"/></g><g id="__id78_sz2oagwq7" style="fill: rgb(213, 119, 70);"><path d="M228.37,253.38l-0.12-11.41c-0.16-15.91,10.34-23.41,10.34-23.41s10.52,7.53,10.4,23.44l-0.08,11.41 L228.37,253.38z" style="fill: inherit;"/><path d="M193.64,253.38l-0.12-11.41c-0.16-15.91,10.34-23.41,10.34-23.41s10.52,7.53,10.4,23.44l-0.08,11.41 L193.64,253.38z" style="fill: inherit;"/></g><g id="__id79_sz2oagwq7"><path d="M211.01,125.35l-0.12-11.41c-0.16-15.91,10.34-23.41,10.34-23.41s10.52,7.53,10.4,23.44l-0.08,11.41 L211.01,125.35z" style="fill: rgb(213, 119, 70);"/></g><g id="__id80_sz2oagwq7"><path d="M163.72 139.01H278.81V144.97H163.72z" style="fill: rgb(244, 190, 106);"/></g><g id="__id81_sz2oagwq7" style="fill: rgb(244, 190, 106);"><path d="M221.26,358.91c-9.71,0-18.86-3.63-25.9-10.24h-0.03l-0.89-0.87c-7.17-7.15-11.11-16.67-11.11-26.81 c0-10.13,3.95-19.66,11.11-26.82c7.15-7.17,16.67-11.11,26.81-11.11c10.15,0,19.67,3.95,26.82,11.11 c7.17,7.17,11.11,16.69,11.11,26.82c0,10.14-3.95,19.66-11.11,26.81l-0.91,0.87C240.12,355.29,230.97,358.91,221.26,358.91z M198.24,343.15l0.44,0.43c6.03,6.04,14.05,9.36,22.58,9.36c8.54,0,16.56-3.33,22.59-9.36l0.6-0.6 c5.67-5.95,8.78-13.73,8.78-21.99c0-8.54-3.33-16.57-9.37-22.6l0,0c-6.03-6.04-14.05-9.36-22.6-9.36 c-8.54,0-16.56,3.33-22.59,9.36c-6.04,6.04-9.37,14.07-9.37,22.61C189.3,329.33,192.47,337.18,198.24,343.15z M221.26,338.25 c-4.62,0-8.96-1.8-12.2-5.06c-3.25-3.24-5.05-7.57-5.05-12.19c0-4.62,1.8-8.95,5.06-12.2c3.24-3.26,7.57-5.05,12.19-5.05 s8.95,1.8,12.2,5.06c3.25,3.24,5.05,7.57,5.05,12.19c0,4.62-1.8,8.95-5.06,12.2C230.21,336.45,225.88,338.25,221.26,338.25z M221.26,309.7c-3.02,0-5.85,1.17-7.98,3.31c-2.14,2.13-3.32,4.97-3.32,7.99s1.17,5.85,3.31,7.98c2.13,2.14,4.96,3.32,7.99,3.32 c3.02,0,5.85-1.17,7.98-3.31c2.14-2.13,3.32-4.97,3.32-7.99c0-3.02-1.17-5.85-3.31-7.98C227.11,310.87,224.28,309.7,221.26,309.7z" style="fill: inherit;"/><path d="M221.26,338.25c-4.62,0-8.96-1.8-12.2-5.06c-3.25-3.24-5.05-7.57-5.05-12.19c0-4.62,1.8-8.95,5.06-12.2 c3.24-3.26,7.57-5.05,12.19-5.05s8.95,1.8,12.2,5.06c3.25,3.24,5.05,7.57,5.05,12.19c0,4.62-1.8,8.95-5.06,12.2 C230.21,336.45,225.88,338.25,221.26,338.25z M221.26,309.7c-3.02,0-5.85,1.17-7.98,3.31c-2.14,2.13-3.32,4.97-3.32,7.99 c0,3.02,1.17,5.85,3.31,7.98c2.13,2.14,4.96,3.32,7.99,3.32c3.02,0,5.85-1.17,7.98-3.31c2.14-2.13,3.32-4.97,3.32-7.99 c0-3.02-1.17-5.85-3.31-7.98C227.11,310.87,224.28,309.7,221.26,309.7z" style="fill: inherit;"/><path d="M218.27 335.26H224.23000000000002V355.93H218.27z" style="fill: inherit;"/><path d="M218.27 286.04H224.23000000000002V306.72H218.27z" style="fill: inherit;"/><path d="M197.8 348.67L196.57 348.67 196.55 345.7 193.57 345.7 193.57 342.71 195.33 342.71 209.06 328.97 213.27 333.19z" style="fill: inherit;"/><path d="M228.32 300.61H249V306.57H228.32z" transform="rotate(-45.001 238.655 303.592)" style="fill: inherit;"/><path d="M186.31 318.01H206.98000000000002V323.96999999999997H186.31z" style="fill: inherit;"/><path d="M235.53 318.01H256.21V323.96999999999997H235.53z" style="fill: inherit;"/><path d="M200.88 293.25H206.84V313.92H200.88z" transform="rotate(-44.976 203.868 303.598)" style="fill: inherit;"/><path d="M245.97 348.67L244.73 348.67 243.85 347.8 229.24 333.19 233.45 328.97 247.19 342.71 248.94 342.71 248.95 345.69 245.97 345.7z" style="fill: inherit;"/></g><g id="__id82_sz2oagwq7" style="fill: rgb(244, 190, 106);"><path d="M430.28,500H12.24v-39.17h418.04V500z M18.21,494.04h406.11v-27.25H18.21V494.04z" style="fill: inherit;"/><path d="M310.6,483.4H131.92v-22.57H310.6V483.4z M137.89,477.43h166.74v-10.64H137.89V477.43z" style="fill: inherit;"/><path d="M333.3,500H109.22v-22.57H333.3V500z M115.18,494.04h212.15V483.4H115.18V494.04z" style="fill: inherit;"/></g><g id="__id83_sz2oagwq7"><path d="M120.24 269.77H322.28V275.72999999999996H120.24z" style="fill: rgb(244, 190, 106);"/></g></g></svg>