<?xml version="1.0" encoding="UTF-8"?>
<!DOCTYPE svg PUBLIC "-//W3C//DTD SVG 1.1//EN" "http://www.w3.org/Graphics/SVG/1.1/DTD/svg11.dtd">
<!-- Creator: CorelDRAW -->
<svg xmlns="http://www.w3.org/2000/svg" xml:space="preserve" width="35.19mm" height="11.586mm" version="1.1" style="shape-rendering:geometricPrecision; text-rendering:geometricPrecision; image-rendering:optimizeQuality; fill-rule:evenodd; clip-rule:evenodd"
viewBox="0 0 3519 1158.6"
 xmlns:xlink="http://www.w3.org/1999/xlink"
 xmlns:xodm="http://www.corel.com/coreldraw/odm/2003">
 <defs>
  <style type="text/css">
   <![CDATA[
    .fil1 {fill:#1C4833}
    .fil0 {fill:#BEAC8F;fill-rule:nonzero}
   ]]>
  </style>
 </defs>
 <g id="Capa_x0020_1">
  <metadata id="CorelCorpID_0Corel-Layer"/>
  <g id="_2182408888112">
   <path class="fil0" d="M21.68 -0.02l3495.75 0 0 1158.64 -3519.01 0 0 -1158.64 23.26 0zm3449.23 46.52l-3425.97 0 0 1065.6 3425.97 0 0 -1065.6z"/>
   <polygon class="fil1" points="1578.27,238.16 1937.57,579.3 1578.27,920.44 "/>
   <path class="fil1" d="M2760.93 402.37l165.36 157.01 0 -157.01 186.34 176.93 -186.34 176.92 0 -157 -165.36 157 0 -353.85zm-2006.01 0l-165.36 157.01 0 -157.01 -186.34 176.93 186.34 176.92 0 -157 165.36 157 0 -353.85z"/>
  </g>
 </g>
</svg>
