<?xml version="1.0" encoding="UTF-8"?>
<!DOCTYPE svg PUBLIC "-//W3C//DTD SVG 1.1//EN" "http://www.w3.org/Graphics/SVG/1.1/DTD/svg11.dtd">
<!-- Creator: CorelDRAW -->
<svg xmlns="http://www.w3.org/2000/svg" xml:space="preserve" width="154.432mm" height="84.978mm" version="1.1" style="shape-rendering:geometricPrecision; text-rendering:geometricPrecision; image-rendering:optimizeQuality; fill-rule:evenodd; clip-rule:evenodd"
viewBox="0 0 15443.18 8497.8"
 xmlns:xlink="http://www.w3.org/1999/xlink"
 xmlns:xodm="http://www.corel.com/coreldraw/odm/2003">
 <defs>
  <style type="text/css">
   <![CDATA[
    .fil0 {fill:#A25F57}
   ]]>
  </style>
 </defs>
 <g id="Capa_x0020_1">
  <metadata id="CorelCorpID_0Corel-Layer"/>
  <g id="_2622136731600">
   <path class="fil0" d="M7596.81 655.37l66.55 -51.98c6.51,-6.62 10.02,-9.86 16.92,-16.95l41.31 -34.89c-2.59,-31.05 -19.42,-67.73 25.4,-67.73 54.49,0 62.12,-6.98 76.32,50.68 7.67,31.16 15.79,32.45 38.8,54.33 1.26,1.2 3.05,2.95 4.32,4.14l77.37 66.57c53.4,54.55 9.17,27.83 62.37,73.09 33.64,28.62 69.81,55.24 91.51,94.76 18.49,33.67 -2.68,18.04 32.06,52.61 30.67,30.51 50.37,56.87 89.85,71.01 63.88,22.88 10.93,36.2 52.65,65.88 11.17,7.95 20.58,7.03 28.75,13.58 27.35,21.92 3.57,-0.3 16.15,26.19 30.29,63.74 47.57,59.01 92.65,102.09 17.78,16.99 27.29,26.53 39.4,45.26 30.52,47.18 72.82,81.03 114.64,122.43l289.84 277.42c46.15,36.85 45.78,49.39 65.56,95.31 13.28,30.8 11.88,15.39 36.47,39.73 37.19,36.83 23.05,49.54 67.96,59.04 47.37,10.03 31.17,35.58 38.36,54.77 0.73,1.94 1.56,4.23 2.44,6.03 14.52,29.47 92.54,94.45 117.72,119.34l213.2 210.14c26.91,17.77 33,35.9 52.81,57.26l75.58 76.82c15.3,51.98 -13.57,8.74 27.34,48.85l38.1 38.1c10.33,12.45 21.52,27.8 28.91,38.83 -13.91,26.29 -27.29,34.62 -33.87,59.27 -99.54,0 -107.36,-8.65 -190.33,38.27 -19.79,11.19 -7.32,7.72 -24.01,18.32l-54.01 22.19c-13.67,7.85 -5.66,6 -20.25,13.62 -18.57,9.69 -14.09,4.47 -30.7,11.63 -75.97,32.73 -44.16,31.43 -146.36,31.43l-33.91 59.23c-13.94,14.35 -46.36,15.09 -68.12,16.54 -62.63,4.18 -24.55,3.48 -71.52,21.62 -40.13,15.5 -23.43,1.36 -56.91,27.76 -29.28,23.07 -35.84,11.05 -63.33,29.8 -27.61,18.82 -24.26,24.06 -53.21,31.46 -13.9,3.55 -2.17,-1.75 -20.2,5.2 -2.5,0.97 -8.85,4.6 -11.18,5.74 -32.14,15.77 -67.84,7.06 -78.82,48.19 -73.46,0 -60.87,-3.16 -114.62,29.31 -8.86,5.36 -18.61,8.52 -28.51,13.83 -31.31,16.79 -77.16,25.42 -94.1,41.37 -39.6,37.3 -55.55,17.96 -98.33,22.67 -43.59,4.81 -24.39,14 -60.34,30.31 -50.27,22.8 -66.06,27.62 -95.17,82.64 -115.25,-26.85 -82.81,10.03 -120.88,23.05 -15.73,5.38 -55.28,2.35 -73.85,2.35 -26.09,38.96 -5.43,21.39 -45.52,39.15 -30.75,13.62 -26.6,30.17 -47.62,37.05 -32.42,0 -54.08,-4.64 -77.35,7.31 -21.51,11.04 -18.33,26.55 -58.11,26.55 -31.35,0 -22.9,-11.49 -42.68,-25.05l-10.7 -6.23c-48.49,-23.87 -48.91,-33.12 -61.94,-39.66 -18.01,-9.04 -25.02,-3.1 -47.76,-11.51 -23.74,-8.78 -12.4,-9.79 -38.16,-21.11 -13.34,-5.86 -14.53,-4.11 -25.06,-8.81 -41.35,-18.43 -47.1,-50.34 -103.9,-23.09 -44.74,-66.81 -54.01,-22.02 -118.52,-84.69 -15.37,-14.94 -7.99,-25.38 -33.88,-25.38 -60.7,0 -33.24,63.3 -107.55,-10.99 -34.49,-34.48 -13.04,-11.54 -50.54,-25.65 -21.53,-8.11 -28.93,-25.09 -50.67,-34.01 -21.99,-9.02 -43.58,-5.55 -70.64,-5.55 -30.42,-57.47 -15,-12.84 -101.22,-59.65l-24.02 -9.85c-23.66,-11.64 -18.41,0.68 -27.16,-32.1 -35.39,0 -81.58,8.55 -115.12,-3.41 -30.62,-10.93 -10.12,-4.57 -19.96,-13.94 -46.28,-44.08 -31.99,-39.32 -93.52,-24.98 -26.14,-19.15 -7.44,-13.62 -34.28,-33.46l-108.98 -60.35c-1.68,-0.9 -3.85,-2.03 -5.6,-2.87 -1.8,-0.86 -4.1,-1.71 -5.96,-2.5l-96.13 -47.8c-49.1,-33.55 -37.18,-22.35 -104.65,-22.35 -30.16,-56.99 -11.51,-28.42 -72.04,-46.5 -29.76,-8.89 -17.38,-11.27 -38.2,-21.07 -30.33,-14.27 -15.46,-4.39 -50.36,-8.9 -51.82,-6.7 -37.33,-26.8 -69.9,-48.64 -43.57,-29.23 -62.01,12.59 -91.24,-27.29 -16.1,-27.09 43.39,-51.23 54.67,-63.87 19.16,-21.48 7.75,-23.22 15.88,-51.86l17.8 -33c1.13,-1.33 2.62,-3.37 3.86,-4.6 27.19,-26.97 39.32,-6.28 71.34,-30.26 61.05,-45.73 25.13,-89.76 48.12,-112.75 25.95,-25.94 83.84,23.33 132.98,-87.15 35.47,-79.75 68.5,-46.59 95.62,-73.71 17.36,-36.19 -2.78,-24.38 27.03,-57.64 79.44,-88.64 179.95,-160.9 250.54,-257.46 15.83,-21.67 17.99,-22.66 18.76,-57.44 41.04,-3.41 55.25,-12.37 68.06,-42l41.92 -59.69c20.55,-27.18 35.12,-34.78 64.18,-45.88 32.55,-12.43 36.62,-24.15 37.51,-64.09 13.65,-1.14 37.6,-5.61 47.47,-11.8 27.21,-17.1 -0.29,-19.88 73.22,-96.11 51.48,-53.37 90.98,-70.15 90.98,-137.63 76.28,-17.77 86.79,-49.28 137.62,-99.44 56.62,-55.85 26.95,-86.58 114.01,-123.06 69.6,-29.17 49.48,-86.03 107.93,-129.13 36.75,-27.1 19.2,-5.16 29.49,-46.71 16.17,-65.27 27.1,-6 83.2,-69.2 17.1,-19.26 20.22,-31.31 37.97,-46.7zm7727.84 -586.42c-47.81,0 -59.93,-1.04 -96.02,22.51 -30.74,20.06 1.63,1.04 -30.09,12.25 -16.77,5.93 -10.25,2.01 -23.43,10.43 -17.77,11.34 -3.56,8.69 -24.81,17.52 -18.97,7.88 -16.59,2.04 -34.42,7.92 -28,9.24 -9.73,4.41 -26.24,16.1 -38.45,27.22 -10.7,6.88 -58.9,17.29 -32.3,6.97 -24.61,14.47 -56.81,27.86 -55.81,23.22 -57.86,24.94 -72.61,88.25 -24.83,-28.57 -11.41,-42.33 -59.27,-42.33 -25.96,0 -18.61,17.2 -54.94,29.72l-95.78 39.69c-29.15,9.86 -55.4,39.57 -69.41,66.06 -121.63,0 -101.87,21.06 -153.68,32.59 -86.18,19.18 -50.29,14.87 -123.3,46.03 -44.4,18.95 -90.36,59.79 -138.28,64.91 -59.65,6.38 -46.41,18.18 -87.26,31.28 -11.43,3.66 -11.63,1.63 -21.15,4.25 -30.26,8.29 -103.35,60.53 -136.95,66.25 -42.16,7.17 -40.71,18.06 -80.14,29.92 -106.3,32 -34.88,12.13 -72.96,37.11 -30.5,20 -48.87,-0.35 -86.33,23.74 -25.64,16.5 -56.96,21.46 -80.2,38.33 -22.51,16.34 -47.91,15.46 -81.73,28.34l-116.32 53.01c-51.36,13.77 -30.54,21.2 -81.91,36.63 -35.51,10.66 -10.7,-1.49 -37.18,22.09 -44.43,39.55 -37.92,4.02 -83.69,26.37 -14.01,6.83 -6.43,10.62 -30.61,20.19 -23.99,9.5 -27.85,1.69 -47.64,11.62 -35.93,18.03 4.7,21.93 -74.49,35.59 -47.48,8.19 -22.94,6.42 -54.66,21.53l-141.49 70.18c-28.61,8.22 -61.83,9.93 -85.3,24.77l-78.6 39.93c-40.06,25.73 -54.42,3.71 -88.37,21.7l-133.19 61.54c-20.05,6.06 -7.13,0.52 -18.03,7.37 -18.7,11.74 2.08,-0.58 -13.09,12.31 -11.09,9.42 -5.97,6.4 -19.72,14.14l-84.54 34.05c-24.13,4.55 -16.63,5 -41.18,10.12 -55.92,11.67 -31,-0.66 -72.54,28.11 -27.95,19.36 -11.78,4.52 -43.3,16.37l-140.64 87.96c-43.71,0 -76.48,-6.57 -106.74,11.79l-82.26 44.74c-23.55,16.29 -44.5,45.42 -67.21,51.32 -67.24,17.44 -56.54,-28.9 -90.92,36.08 -41.18,0 -52.06,-5.89 -81.25,11.89 -20.11,12.25 -3.17,6.74 -24.94,17.39 -14.46,7.08 -29.87,8.64 -39.96,10.84l-104.09 39.85c-54.33,31.88 -77.23,38.45 -135.49,59.24 -28.64,10.21 -14.15,7.76 -29.03,21.76 -26.19,24.63 -68.63,21.15 -104.44,39.5 -14.39,7.38 -0.79,1.8 -17.29,8.11 -35.61,13.6 -47.48,32.66 -81.94,36.59 -78.31,8.94 -23.8,-4.88 -76.45,25.15l-161.7 75.37c-32.88,8.76 -9.13,-7.66 -38.51,12.29 -45.06,30.61 6.5,21.5 -69.58,32.02 -55.78,7.7 -16.36,14.69 -63.93,29.2 -57.73,17.6 -33.15,-19.56 -63.6,38 -93.87,0 -62.03,15.29 -134.21,35.13 -44.94,12.35 -31.52,25.58 -76.18,33.88l-59.83 24.84c-25.86,17.34 -35.09,15.93 -43.05,50.08 -34.06,0 -91.12,-10.6 -122.03,4.97 -1.67,0.84 -3.55,2.41 -5.06,3.41l-42.11 25.62c-33.09,8.97 -55.82,25.83 -89.16,46.31 -36.16,22.22 -2.77,11.3 -46.56,21.17 -41.04,9.26 -35.49,21.78 -66.43,35.18 -29.44,12.74 -31.85,1.89 -68.91,-1.19 -33.06,49.36 -35.24,27.74 -78.15,57.32 -38.36,26.46 -31.75,18.88 -82.72,18.88 -36.74,0 -58.3,-54.23 -87.88,-64.53 -33.43,-11.64 -24.61,11.61 -42.73,-16.53 -9.05,-14.05 -6.68,-38.68 -21.25,-54.94 -1.17,-1.3 -3.24,-2.77 -4.45,-4.02 -22.64,-23.24 -36.7,-51.81 -62.32,-73.15 -22.23,-18.53 -42.32,-27.35 -60.89,-49.18l-103.86 -116.27c-31.5,-29.99 -31.49,-21.84 -31.49,-78.58 -64.08,-14.93 -106.2,-88.85 -146.32,-133.07 -23.5,-25.9 -30.47,-16.46 -53.23,-48.37 -41.67,-58.4 -104.87,-93.58 -140.46,-138.95 -57.75,-73.63 -47.11,-18.97 -85.25,-109.48 -17.92,-42.55 -27.13,-19.39 -52.64,-40.49 -25.28,-20.91 -3.09,-35.02 -37.45,-55.69 -45.18,-27.18 -25.4,9.52 -53.67,-47.93 -27.44,-55.75 -95.67,-95.71 -130.96,-148.44l-118.01 -119.05c-4.75,-5.54 -18.24,-18.19 -25.44,-25.36l-42.37 -42.3c-1.23,-1.23 -3.04,-2.96 -4.27,-4.19l-71.91 -72.03c-43.65,-37.43 -41.1,-22.01 -64.69,-79.24 -12.7,-30.81 -87.03,-102.49 -114.07,-123 -28.89,-21.92 -18.56,-7.01 -34.31,-16.49l-17.79 -24.54c-2.77,-8.86 0.44,-8.76 -4.05,-21.35 -7.23,-20.25 3.28,-0.88 -9.12,-16.28l-86.12 -66.28c-38.08,-14.37 -64.96,-44.87 -93.46,-75.87 -1.18,-1.29 -2.94,-3.07 -4.08,-4.39 -74.46,-86.96 -16.97,-111.21 -202.06,-111.21 -46.46,0 -30.69,45.03 -25.4,67.74l-62.2 39.4c-48.99,15.02 -28.8,-7.58 -67.35,34.25 -20.58,22.33 -24.98,36.31 -46.03,55.57 -22.52,20.61 -35.53,26.57 -59.45,50.61 -72.11,72.51 -34.5,72.41 -87.68,123.99 -7.32,7.09 -4.82,4.88 -12.65,12.75 -83.77,84.2 -80.96,23.39 -170.7,167.96 -6.79,10.94 -5.33,8 -11.03,14.37l-63.86 63.15c-1.23,1.23 -3,3 -4.24,4.22l-59.3 59.23c-1.24,1.23 -3.03,2.98 -4.26,4.21l-39.53 45.14c-32.45,39.34 -74.73,65.77 -106.41,105.25 -13.8,17.19 -36.76,40.84 -54.55,55.52l-105.38 106.29c-51.9,51.89 -118.37,100.67 -146.08,167.19l-50.99 59.07c-12.24,11.01 -13.74,12.01 -26.25,24.55l-25.46 25.34c-5.89,5.91 -6.08,6.28 -12.6,12.8l-117.74 119.32c-121.56,122.59 -68.25,66.83 -90.96,120.71 -17.79,42.2 -35.66,0.92 -69.73,40.34 -9.08,10.5 -13.07,17.94 -22.44,28.36 -0.44,0.49 -10.04,10.41 -12.46,12.94 -18.39,19.19 -21.74,34.47 -30.99,53.68l-26.94 32.32c-1.2,1.26 -2.84,3.16 -4.04,4.43l-29.99 29.28c-23.98,22.68 -16.83,22.25 -46.64,38.02 0,42.54 -0.95,43.92 -8.47,76.2 -41.13,0 -63.81,3.59 -89.46,29.07 -1.75,1.73 -6.35,7.11 -8.06,8.88l-46.31 55.28c-37.75,49.04 -105.86,33.77 -160.97,33.77 -34.95,0 -38.08,-42.33 -76.2,-42.33 -30.92,0 -33.87,26.65 -33.87,50.8 0,31.31 51.51,26.8 76.45,42.08 37.88,23.2 148.28,32.74 10.84,138.33 -50.65,38.92 -53.42,10.31 -53.42,98.99l-93.13 0c-7.49,32.13 -9.45,69.46 -16.94,101.6 -66.98,15.6 -102.05,51.91 -148.28,97.25 -47.02,46.12 -36.4,68.56 -102.8,108.86 -21.83,13.25 -8.75,4.94 -23.41,18.92 -68.12,64.93 -14.61,106.03 -106.51,130.56l0 25.4c84.09,19.59 45.5,-5.56 103.71,-48.69 37.33,-27.65 53.52,-2.7 72.29,-46.24 9.4,-21.81 1.55,-17.16 17,-42.27 3.02,-4.9 23.9,-30.59 26.82,-32.45 1.56,-0.99 3.7,-2.21 5.42,-3.04 61.33,-29.37 17.51,18.7 103.22,-66.12 29.79,-29.47 26.08,-58.32 53.51,-90.42l81.92 -70.53c49.24,-46.71 32.23,-22.13 27.18,-82.83 42.54,0 43.92,-0.95 76.2,-8.47 0,-39.92 1.51,-37.88 8.47,-67.73 55.7,-26.73 60.06,2.31 101.6,-76.2l84.66 8.46c84.35,0 27.49,-19.42 109.63,25.84l34.83 15.97c11.4,7.45 9.26,8.44 17.61,16.26l60.46 41.14c29.9,12.45 18.04,2.6 46.07,21.67 21.9,14.9 17.03,15.77 46.89,20.84 40.08,6.81 83.24,19.12 116.1,44.76 42.9,33.46 27.35,13.32 62.31,30.83l22.83 19.5c1.54,0.98 3.51,2.43 5.19,3.28l34.33 8c60.74,15.28 8.67,31.7 104.32,31.15 90.56,-0.52 26.75,25.56 118.37,25.56 9.14,39.23 31.94,52.37 64.58,70.88l74.09 35.98c31.68,17.02 10.66,7.44 47.77,11.5 70.4,7.7 23.37,28.04 93,34 14.85,1.27 15.29,-1.5 31.08,2.79 25.46,6.92 32.39,20.81 70.5,22.63 53.87,2.57 42.47,18.03 85.56,32.97 38.06,13.19 9.51,-6.08 43.68,24.06 28.19,24.86 2.07,8.6 36.84,22.42 40.59,16.14 14.2,3.81 43.98,23.75 34.73,23.25 58.58,15.35 111.65,15.35 31.38,10.27 31.74,55.21 92.59,59.82 13.38,1.01 36.72,-0.55 51.34,-0.55 9.24,17.45 11.75,20.07 16.94,42.33 83.44,0 112.86,49.68 34.13,68 -37.37,8.69 -71.12,41.85 -109.24,60.1 -30.45,14.59 -38.93,1.09 -71.35,13.31 -27.52,10.37 -15.77,17.14 -50.44,25.76 -64.36,16 -65.42,6.62 -113.68,55.66 -27.75,28.19 -16.06,19.1 -61.85,22.81 -53.7,4.36 -18.51,-0.18 -54.47,21.74 -37.39,22.79 -31.87,4.28 -70,14.66 -24.76,6.74 -96.6,52.42 -145.4,66.27 -20.77,5.89 -13.59,3.59 -27.75,14.59 -36.64,28.46 -11.01,10.52 -63.03,21.63 -28.28,6.04 -38,17.65 -55.17,29.5 -30.35,20.95 -20.51,11.84 -41.49,43.17 -131.95,0 -51.13,5.35 -124.89,35.97 -33.25,13.81 -40.63,27.79 -78.17,31.9 -47.47,5.2 -41.7,20.22 -79.04,31.03 -21.51,6.23 -27.05,-0.02 -51.29,7.97 -42.9,14.16 -6.32,12.78 -79.35,30.72 -36.28,8.92 -32.51,28.18 -68.83,41.24 -29.12,10.46 -2.39,-6.69 -33.52,17.28 -7.8,6 -23.89,19.63 -31.42,27.85 -21.78,23.75 -29.64,47.18 -54.62,63.91l-20.32 -13.54c-35.01,-24.7 -55.64,-26.88 -91.61,11.68 -35.97,38.55 -40.28,34.58 -82.2,53.26 -8.82,3.94 -0.67,1.99 -18.9,6.51 -39.05,9.67 -55.45,5.28 -66.37,52.16 -28.4,-13.63 -76.78,-8.47 -118.53,-8.47 -14.85,22.17 -21.08,35.1 -33.87,59.27 38.96,18.69 106.08,25.79 145.05,1.12 63.82,-40.4 41.29,-9.15 98.41,-54 20.24,-15.88 4.41,-5.2 21.87,-12 2.02,-0.79 4.52,-1.13 6.58,-1.88l18.75 -6.65c1.63,-0.89 3.65,-2.3 5.17,-3.3l22.99 -19.34c1.77,-0.89 4.06,-1.74 5.99,-2.48l44.99 -14.28c52.35,-33.41 43.94,-11.24 92.57,-25.96l107.67 -53.2c27.13,-7.78 39.47,-1.21 63.85,-12.34 25.27,-11.55 14.57,-16.77 46.98,-29.23 20.44,-7.85 51.29,-9.01 68.15,-16.51 46.52,-20.67 16.62,-47.26 97.64,-54.76 42.62,-3.94 26.31,1.54 57.03,-19.17 21.9,-14.77 -0.12,-5.79 27.41,-14.92 51.89,-17.21 97.43,-22.6 141.85,-52.88 33.28,-22.69 80.79,-25.66 117.19,-43.68l127.77 -58.5c53.31,-34.68 56.56,-10.2 97.17,-29.83l179.42 -91.51c41.99,-12.05 50.9,-4.61 89.08,-29.45l28.59 -13.75c33.21,-12.87 33.75,-25.02 75.64,-34.43 69.73,-15.66 15.23,-5.32 54.98,-29.68l155.21 -73.4c50.81,-9.18 161.88,-15.78 204.77,7.17 6.74,3.6 29.97,27.31 40.52,35.68l109.34 51.52c10.67,2.58 20.08,3.07 28.97,4.91 49.7,10.29 30.08,20.41 88.15,30.38 75.63,12.97 172.29,87.33 241.49,114.11 29.05,11.24 43.74,35.65 82.24,35.41 65.67,-0.43 29.29,-29.62 96.51,14.38l48.46 19.33c21.57,11.84 23.65,20.84 49.17,27.03 62.06,15.05 57.68,23.02 97.33,38.13l39.05 20.22c40.46,40.43 -5.37,12.38 56.98,27.69 38.25,9.38 24.82,17.3 49.52,26.68 34.69,13.15 54.12,3.34 86.16,23.91 24.47,15.72 0.41,3.69 28.54,13.79l53.03 23.17c2.02,0.76 4.41,1.27 6.48,1.99l47.34 28.85c31.74,26.01 15.11,10.24 61.1,15.11 17.31,1.83 165.15,88.38 148.29,6.11 -12.27,-59.9 -59.74,-26.46 -96.08,-49.86 -22.99,-14.81 3.46,0.88 -16.73,-17.14 -19.12,-17.06 -22.9,-15.83 -51.9,-15.83 -42.55,0 -37.91,7.61 -76.2,8.47 -11.05,-47.45 -57.91,-61.21 -98.03,-79.77l-62 -31.13c-29.11,-10.22 -3.33,2.97 -28.29,-14.05 -14.14,-9.65 -9.55,-18.99 -31.81,-18.99 -48.48,0 -70.11,18.5 -99.22,-1.79 -15.86,-11.07 -9.09,-14.81 -32.71,-27.14 -31.67,-16.53 -7.11,6.94 -38.73,-20.54 -100.55,-87.37 -130.49,-41.56 -168.01,-52.13 -1.72,-0.48 -21.97,-27.24 -65.29,-44.77 -25.93,-10.5 -47.4,-34.94 -67.61,-50.92 -28.07,-22.19 6.4,-8.21 -36.9,-13.9 -92.05,-12.1 -11.03,-14.3 -84.21,-34.32 -37.73,-10.33 -41.42,-22.86 -75.84,-34.23 -35.13,-11.62 -57.02,-4.54 -87.94,-30.6 -10.18,-8.58 -22.45,-18.79 -34.11,-25.15 -30.34,-16.57 -55.02,-12.92 -83.9,-26.17 -25.06,-11.49 -15.12,-12.97 -36.09,-23.18 -10.22,-4.98 -35.36,-10.57 -46.17,-13.09l0 -50.8c24.79,-5.77 61.87,-5.08 82.38,-10.75 32.32,-8.92 23.25,-29.18 55.43,-37.7 65.28,-17.29 68.66,19.73 116.19,-70.08 71.28,0 69.77,11.9 108.18,-27.29 39.56,-40.37 63.51,-31.75 117.84,-51.49 23.89,-8.68 -1.55,0.16 22.07,-11.79l51.68 -16.05c56.33,-23.99 -1.83,-28.85 106.63,-28.85 36.18,-26.51 -3.59,-17.37 42,-34.19l179.17 -74.83c45.04,-16.47 -24.67,12.83 12.99,-3.95 22.91,-10.2 8.94,-14.28 36.85,-30.88 25,-14.87 65.05,-7.37 102.48,-24.52 37.27,-17.08 51.46,-16.25 75.24,-51.76 120.87,0 75.37,-26.99 146.15,-57.05l68.2 -33.4c36.84,-10.66 47.34,3.72 79.58,-22.02 57.74,-46.08 12.93,-18.29 94.42,-32.58 29.22,-5.12 15.29,-6.53 34.77,-16.03 24.76,-12.08 30.98,-5.73 53.14,-23.06l99.47 -61.39c85.15,0 86.67,-18.93 140.99,36.81 32.55,33.42 42.76,57.66 81.04,88.29 33.72,26.98 35.78,29.98 63.04,63.96 29.95,37.33 32.58,31.08 67.19,59.81 24.34,20.21 34.12,44.89 58.15,68.86l128.93 125.06c53.37,43.59 21.13,40.33 51.63,83.84 67.4,96.19 190.68,161.93 260.5,255.97l187.06 194.04c37.81,25.6 58.48,23.5 96.01,5.49 -10.18,-38.1 -46.47,-61.42 -65.27,-95.6 -19.99,-36.36 -86.45,-63.12 -119.6,-100.53 -30.68,-34.62 -3.76,-53.32 -44.48,-65.6 -51.08,-15.4 -9.47,15.55 -67.05,-43 -14.47,-14.71 -13.34,-14.12 -27.98,-31.29 -14.7,-17.24 -45.03,-41.45 -54.34,-55.73 -27.44,-42.1 7.82,-28.05 -42.25,-76.29 -39.52,-38.08 -71.61,-71.1 -110.32,-109.81 -35.86,-35.87 -78.44,-73.19 -110.51,-109.62 -32.23,-36.63 -5.21,-40.8 -42.01,-68.06 -32.92,-24.4 -35.4,-3.66 -67.46,-42.6 -14.11,-17.13 -6.77,-13.35 -22.08,-28.72 -13.16,-13.22 -17.41,-12.75 -33.26,-26.02 -48.9,-40.92 -18.13,-32.76 -40.06,-78.46 -15.16,-15.16 -101.6,-24.29 -101.6,-67.74 0,-58.85 32.63,-42.36 70.14,-65.32l119.66 -58.15c21.58,-10.43 11.83,-11.59 36.36,-22.9l90.83 -27.7c23.83,-11.27 20.16,-6.95 43.18,-16.09 31.68,-12.58 25.13,-19.34 49.21,-26.99l68.26 -33.34c28.48,-18.38 53.01,-11.68 85.73,-32.8 24.55,-15.86 7.19,-14.92 38.5,-20.76 14.27,-2.67 50.51,-0.75 67,-0.75 12.02,-45.02 16.39,-24.31 56.3,-36.82 28.2,-8.84 22.06,-17.73 48.06,-28.14l97.76 -29.25c30.9,-4.84 31.12,-20.57 97.69,-46.24 10.54,-4.06 21.56,-12.39 32.89,-17.91 37.98,-18.5 54.74,-2.79 83.43,-18.17 11.42,-6.13 14.92,-15.99 26.66,-24.14 29.65,-20.55 76.9,-30.29 114.71,-37.69l166.78 -78.75c20.08,-7.32 0.92,0.41 17.04,-8.36 1.43,-0.78 15.21,-9.41 15.74,-9.66 33.59,-16.19 56.94,-5.9 82.45,-19.15 16.01,-8.33 33.85,-37.76 52.44,-49.16 36.02,-22.07 48.08,-2 82.77,-18.83l98.34 -54.06c18.96,-8.47 19.43,-3.99 38.24,-12.56 44.61,-20.33 3.57,-20.94 65.43,-27.71 63.49,-6.94 32.38,-9.06 72.81,-28.78l66.84 -34.76c33.65,-18.4 51.42,-5.93 82.04,-19.56 5.03,-2.24 26.22,-17.8 30.94,-19.86 27.59,-12.04 13.8,-3.25 43.45,-7.36 54.79,-7.6 22.15,-17.58 65.8,-35.8 36.73,-15.33 76.39,-22.8 109.74,-42.66 18.56,-11.04 2.82,-10.64 31.76,-19.04 36.29,-10.53 44.51,1.78 75.22,-17.9 16.86,-10.81 12.67,-9.94 32.26,-18.55l315.69 -141.51c53.49,-20.73 102.4,-15.51 131.91,-71.28 108.58,0 68.39,-30.02 145.27,-41 54.22,-7.75 44.95,-17.91 91.57,-35.44l44.22 -23.51c32.77,-16.62 41.09,-3.11 66.76,-26.37 1.95,-1.77 -1.57,-4.56 16.25,-17.62 49.81,0 47.28,8.29 78.26,-14.87 50.13,-37.49 54.04,-1.89 107.1,-36.83l198.97 -97.37c20.44,-9.46 15.84,-14.15 29.48,-21.31 32.15,-16.87 44.52,1.7 78.37,-14.77l49.5 -26.7c39.26,-15.59 28.49,-28.37 84.85,-33.68 61.73,-5.81 33.69,-9.9 72.69,-28.92l266.08 -123.38 50.64 -51.35c30.91,-22.58 70.34,-8.01 110.13,-8.01 31.55,0 98.91,-45.85 131.45,-63.28 38.72,-20.75 31.65,-2.42 65.79,-35.82 70.02,-68.5 37.69,-33.87 133.05,-44.52 56,-6.26 19.12,-24.23 68.73,-33.1 40.92,-7.31 43.23,-1.08 79.07,-22.52 24.01,-14.36 16.04,-6.02 36.15,-14.66 46.56,-19.99 -16.1,-4.07 92.55,-51.38 106.02,-46.16 47.99,-51.62 146.94,-56.26 42.78,-2 36.38,-19.04 70.59,-31.01 21.27,-7.43 11.53,1.75 32.69,-9.64 28.16,-15.17 61.39,-47.69 94.92,-57.48 44.34,-12.95 40.89,9.01 82.88,-18.72 23.66,-15.62 42.89,-30.1 48.92,-52.68 39.03,3.25 23.08,6.84 50.8,25.4 55.21,-82.44 118.53,-55.4 118.53,-169.33l-33.86 0c-16.01,59.92 -41.71,-13.46 -84.67,67.73z"/>
   <path class="fil0" d="M3903.12 4894.94c-42.38,0 -85.11,-4.55 -114.81,12.19 -30.66,17.28 -38.65,50.44 -75.03,60.44 -21.93,6.02 -32.8,0.66 -53.05,6.21 -30.94,8.48 -10.62,12.64 -42.33,25.41 -63.87,25.73 -95.78,-31.66 -95.78,73.55 -41.69,-0.93 -46.89,-2.59 -42.07,-48.59 3.26,-31.08 8.21,-42.02 8.21,-86.87 -145.83,0 -87.04,70.1 -118.54,101.6 -35.08,16.83 -29.12,-3.12 -61.78,22.88 -26.89,21.4 -106.7,111.04 -135.43,118.57 -39.49,10.36 -25.84,-9.92 -67.9,16.76 -16.37,10.39 3.17,3.06 -26.81,15.53l-30.42 11.91c-86.94,48.45 -44.15,13.96 -97.31,29.69 -27.65,8.18 -14.3,9.13 -31.57,19.24 -43.25,25.31 -21.08,-3.83 -62.59,22.07l-57.19 27.48c-32.75,14.86 -19.14,26.99 -43.96,40.7 -17.43,9.62 -12.43,1.47 -31.22,11.11 -36.25,18.62 7.63,3.68 -28.95,21.85 -22.98,11.42 -49.33,5.28 -78.96,5.72 -36.48,0.54 -95.46,26.92 -120.53,48.79 -22.85,19.93 -26.48,28.23 -39.78,53.36 -154.47,-22.69 -60.37,13.82 -135.46,33.87l0 33.86c39.02,3.25 23.08,6.85 50.8,25.4 51.29,-34.35 37.71,-10.99 67.73,-67.73 187.18,18.66 83.92,7.26 146.55,-22.78 75.29,-36.1 30.78,-7.25 65.12,-78.82 44.07,11.77 7.19,8.12 42.33,33.87l17.4 -33.62c70.29,-0.25 46.8,21.74 84.2,-34.11 128.15,0 23.36,-13.37 133.96,-43.84 18.01,-4.96 10.42,-2.71 24.17,-9.7 17.25,-8.78 48.84,-24.75 88.49,-18.68 35.9,5.49 15.85,28.73 15.85,72.22 101.07,0 62.72,-21.57 137.31,-91.29 20.51,-19.18 30.14,-21.23 51.21,-41.92 8.81,-8.66 11.82,-13.34 20.51,-21.83 23.87,-23.33 12.37,-13.01 43.96,-23.77 2.09,-0.72 4.5,-1.16 6.55,-1.92l76.46 -33.6c23.78,-8.81 15.47,-10.72 30.54,-20.26 33.62,-21.29 19.48,-4.92 55.34,-12.39l38.21 -29.53c8.47,-20.19 5.57,-20.63 5.57,-45.23 62.67,5.22 127.38,37.95 135.47,-59.26 160.16,0 121.86,-29.81 171.07,-40.6 18.08,-3.97 54.33,-1.74 74.46,-1.74 11.91,-22.5 18.48,-48.1 42.11,-59.49 40.98,-19.75 67.96,11.95 67.96,-42.11 0,-31.99 -28.82,-50.93 -80.6,-12.86 -24.31,17.87 -21.62,8.87 -29.47,38.26z"/>
   <path class="fil0" d="M1710.26 6808.41c-25.8,-0.58 -30.87,-3.83 -50.8,-8.47 -22.68,42.85 -12.66,21.57 -55.05,63.49 -69.51,68.74 -2.56,26.21 -79.78,81.09 -20.18,14.34 -8,6.35 -21.93,20.4 -61.75,62.29 -26.84,46.56 -78.74,82.12 -52.67,36.09 -60.84,79.21 -60.84,142.37 -95.03,0 -16.85,-9.18 -119.33,50 -78.5,45.34 -48.01,27.22 -59.93,67.06 -9.52,31.82 1.65,4.79 -19.32,31.49 -1.07,1.37 -2.9,3.22 -3.89,4.57 -6.68,9.06 -4.54,-1.21 -9.19,16.21 64.77,43.38 50.94,3.29 128.25,-58.01 12.69,-10.07 18.76,-16.76 30.57,-28.7l165.06 -165.14c53.32,-52.69 70.46,-86.25 160.73,-169.47 27.46,-25.32 34.02,-21.18 57.54,-52.52 70.5,-93.94 93.42,-83.1 127.26,-143.68l77.84 -91.49c28.58,-27.37 29.93,-39.88 57.78,-52.29 30.02,-13.38 27.26,0.74 40.54,-35.66 17.34,-47.57 -1.42,-19.44 49.34,-35.32 34.6,-10.83 27.95,-17.27 27.95,-82.12 0,-30.1 -16.49,-25.4 -50.8,-25.4 -25.9,0 -11.01,2.77 -29.94,20.86 -1.26,1.2 -2.91,3.09 -4.15,4.32 -3.28,3.24 -8.67,8.38 -12.78,12.62l-63.68 63.31c-28.65,28.09 -6.52,29.92 -24.88,59.79 -9.23,15.02 0.86,-0.65 -12.3,13.1 -1.21,1.25 -3.16,2.84 -4.38,4.09l-118.97 118.1c-35.91,34.89 -27.56,19.3 -34.36,50.3 -3.79,17.25 -3.68,25.2 -7.82,42.98z"/>
   <path class="fil0" d="M2421.46 1051.08c0,44.86 3.09,35.04 38.88,54.25 40.9,21.94 14.81,13.42 62.45,22.22l137.37 65.83c9.06,4.35 21.15,7.39 30.51,11.82l115.45 53.88c31.07,11.14 39.43,7.58 72.43,12.24 54.21,7.63 15.8,11.32 56.1,28.56 30.2,12.93 13.57,-6.47 52.81,23.39 14.22,10.82 7.15,8.66 27.83,14.51 2.71,0.77 11.59,1.87 14.33,2.6 2.29,0.62 4.68,0.88 6.89,1.58l117.17 60.63c28.86,15.59 43.54,7.13 67.33,17.45 26.29,11.41 19.4,32.46 52.34,26.2 21.6,-4.11 37.11,-26.52 37.11,-48.03 0,-25.25 -11.24,-19.48 -30.54,-37.19 -107.45,-98.61 -26.94,-55.94 -130.33,-55.94 -26.61,0 5.93,-26.55 -59.07,-42.53 -57.53,-14.15 -8.95,-2.14 -51.83,-24.37 -22.94,-11.9 -25.01,-4.37 -46.15,-21.59 -7.3,-5.95 -1.47,-7.45 -20.75,-21.58 -51.12,0 -69.01,7.13 -99.7,-18.83 -32.06,-27.14 -25.21,-46.81 -77.46,-49.54 -131.87,-6.89 -107.35,17.97 -169.97,-75.56 -216.02,0 -87.68,-33.87 -169.34,-33.87 -19.82,0 -33.86,14.05 -33.86,33.87z"/>
   <path class="fil0" d="M2497.66 5894.01c-11.57,24.1 -3.68,27.9 -11.99,47.28 -9.04,21.06 2.77,-0.71 -10,15.39l-27.24 32.03c-22.49,32.19 -18.51,34.41 -18.51,74.63 -106.3,0 -99.91,63.84 -158.62,95.38 -29.13,15.65 -40.75,2.39 -53.04,14.69 -26.06,54.29 16.64,71.94 -35.65,125.21l-58.24 64.96c-0.5,6.04 -26.25,13.03 26.15,13.03 33.99,0 3.38,2.34 21.38,-12.49l235.44 -230.22c20.58,-29.73 10.45,-23.73 22.9,-53.31 24.79,-58.88 56.37,-26.71 120.24,-91.43 7.12,-7.21 9.33,-9.7 17.55,-16.31 76.94,-61.92 4.51,-52.27 111.17,-142.83 25.12,-21.32 44.77,-9.93 55.52,-20.68 24.81,-51.71 -9.12,-40.21 49.56,-85.91l170.14 -168.52c7.95,-10.89 17.46,-29.39 25.84,-41.9 -21.59,-14.46 -26.44,-14.51 -33.87,-42.33 -44.3,11.82 -19.07,21.08 -54.4,47.2 -110.6,81.77 -50.54,71.21 -97.53,122.6 -1.18,1.28 -3.13,2.87 -4.35,4.11l-77.12 75.28c-31.45,28.67 4.9,9.63 -37.9,21.37 -23.16,6.36 -22.1,-3.54 -35.02,15.78 -15.26,22.82 0.01,20.68 -12.27,46.99l-53.64 56.44c-1.21,1.25 -2.78,3.21 -4.02,4.44l-24.39 17.95c-21.79,8.17 -21.73,-1.48 -48.09,11.17z"/>
   <path class="fil0" d="M11048.99 4691.74c35.86,0 39.75,-8.46 84.66,-8.46 13.13,24.81 25.43,43.82 48.36,61.71 32.89,25.66 37.74,6.14 72.57,37.5 85.3,76.78 32.04,44.72 158.47,44.72 16.55,71.02 78.84,58.93 131.91,79.76 34.56,13.56 21.39,20.54 48.18,28.02 66.35,18.5 83.49,-25.92 139.07,38.73 39.85,46.36 81.65,49.88 138.04,22.82 -13.88,-51.99 -47.57,-50.63 -109.17,-85.56 -50.8,-28.8 -22.24,10.59 -113.46,-38.94 -57.06,-30.98 -76.89,-36.36 -141.43,-36.36 -9.99,-18.88 -14.13,-25.5 -25.4,-42.34 -129.42,19.01 -54.14,-2.62 -106.7,-28.76 -27.31,-13.58 -30.99,4.12 -64.62,-20.06 -51.08,-36.72 -8.25,-47.28 -100.26,-60.6 -24.23,-3.5 -91.62,-26.95 -113.56,-47.31l-31.44 -19.36c-1.99,-0.78 -4.43,-1.26 -6.43,-2.04l-12.27 -4.65c-53.29,-25.52 -22.71,-39.96 -106.59,-20.42 -13.49,-20.14 -10.25,-8.82 -16.93,-33.86 -91.21,0 -51.81,8.42 -33.57,49.91 26.9,61.19 1.69,26.75 78.23,66.29l82.34 19.26z"/>
   <path class="fil0" d="M12691.52 5352.14c0,57.11 0.3,31.43 19.54,39.73l178.66 75.34c54.62,24.88 16.12,49.94 106.6,28.87 9.99,18.87 14.12,25.49 25.4,42.33 129.32,0 39.07,-7.6 141.51,36.29 14.74,6.32 3.43,0.64 16.72,8.68 15.08,9.13 5.27,5.98 20.14,13.72 35.29,18.38 54.26,4.72 78.16,40.42 43.08,64.34 2.78,36.35 90.6,36.35 31.67,0 10.59,17.98 69.59,40.48 39.93,15.23 80.88,64.61 167.48,18.79 -12.3,-18.37 -30.89,-32.6 -50.99,-42.14 -20.54,-9.74 -54.32,-12.13 -71.1,-22.04 -54.68,-32.31 -14.36,-54.35 -140.38,-54.35 -9.23,-17.45 -11.74,-20.07 -16.93,-42.34 -80.27,0 -39.03,3.01 -83.96,-26.11 -38.43,-24.9 -32.27,3.93 -68.44,-50.08 -195.46,0 -59.79,5.6 -179.04,-49.57 -33.85,-15.66 -70.91,-9.7 -117.3,-9.7 -73.31,-109.49 -66.1,-54.81 -105.96,-88.77 -17.64,-15.04 -4.43,-29.76 -46.44,-29.76 -19.81,0 -33.86,14.04 -33.86,33.86z"/>
   <path class="fil0" d="M694.26 306.02c0,62.79 53.96,64.78 95.34,90.92 10.24,6.47 15.87,17.04 31.66,27.61 26.97,-19.77 6.88,-14.1 33.86,-33.87 24.6,18.02 9.1,14.12 39.22,36.99 1.42,1.07 3.54,2.43 4.97,3.49l164.19 81.35c49.33,18.53 15.73,-7.32 56.04,28.62 36.28,32.36 11.65,13.2 65.41,19.25 80.29,9.04 -20.83,33.5 135.84,33.5 19.09,-79.72 -0.77,-49.16 -62.13,-64.87 -55.26,-14.16 -16.65,-23.04 -39.47,-70.59 -26.43,-12.69 -16.09,-2.88 -41.2,-9.61 -45.72,-12.23 -19.97,-22.78 -78.77,-31.29 -92.14,-13.34 2.94,-10.87 -98.83,-36.64 -53.73,-13.6 -49.82,-53.61 -111.4,-24.06 -9.99,-18.88 -14.13,-25.5 -25.4,-42.34 -18.58,0 -58.12,3.03 -73.85,-2.35 -48.98,-16.74 13.69,-31.51 -70.08,-31.51 -19.51,0 -25.4,5.89 -25.4,25.4z"/>
   <path class="fil0" d="M4927.59 2109.41c0,45.96 -2.22,29.06 42.86,58.74l27.12 15.21c20.13,5.55 106.21,2.25 133.22,2.25 46.78,88.41 68.6,64.57 127.95,92.18 1.77,0.83 3.84,2.03 5.67,2.8 45.21,19.07 30.48,-8.93 61.11,48.96 28.66,0 66.33,-2.26 93.71,-0.58 87.56,5.37 -13.68,25.98 117.96,25.98 28.97,0 27.91,-25.24 33.86,-50.8 -74.65,-49.99 -45.06,-50.8 -169.33,-50.8 -13.49,-20.15 -10.24,-8.82 -16.93,-33.87 -38.76,0 -99.76,8.27 -128.56,-6.91 -21.26,-11.19 -54.63,-71.24 -66.18,-69.29l-67.48 9.91 -46.5 -56.8c-27.21,-25.83 16.66,-20.84 -114.62,-20.84 -19.81,0 -33.86,14.04 -33.86,33.86z"/>
   <path class="fil0" d="M-0.01 26.62c0,56.27 5.29,29.76 45.42,47.7 54.09,24.19 -9.89,28.5 106.98,28.5 37.2,70.3 31.74,35.61 110.07,33.86 7.55,32.44 15.33,31.71 52.85,57.22l46.13 21.6c1.84,0.8 4.08,1.74 5.87,2.6 1.75,0.83 3.84,2.04 5.54,2.92l63.93 20.74c30.46,5.65 23.35,3.15 43.25,16.02 45.01,29.1 25.9,22.84 95.69,22.84 34.4,51.37 84.67,82.1 84.67,33.86 0,-107.15 -12.11,-52.5 -65.44,-86.96 -18.22,-11.78 -36.86,-48.56 -62.74,-53.32 -37.55,-6.92 -75.27,2.02 -108.89,4.82 -18.93,-81.29 -124.14,-74.8 -139.38,-80.75 -25.94,-10.12 -7.17,-13.32 -46.99,-29.22 -46.17,-18.43 -55.93,-40.77 -102,-41.04 -34.04,-0.2 -30.52,14.98 -62.52,2.92 -0.02,0 -72.44,-66.6 -72.44,-4.31z"/>
   <path class="fil0" d="M3843.85 1626.81c10.05,37.64 34.49,67.87 69.3,83.79 61.78,28.25 48.66,-24.32 99,35.74 17.72,21.14 37.12,32.1 64.6,45.51 27.54,13.43 43.16,22.57 67.35,34.26 34.31,16.58 50.76,6.9 81.9,19.69 66.33,27.23 144.91,33.36 210.52,18.08 -1.36,-16.38 -0.73,-26.7 -30.42,-45.78 -54.99,-35.34 -61.85,6.24 -110.53,-41.89 -21.71,-21.48 9.66,1.83 -17.2,-17.04 -42.83,-30.08 -49.72,7.3 -88.57,-12.09 -57.06,-28.47 7.39,-61 -168.15,-61 -8,-16.69 -12.23,-39.09 -16.93,-59.27 -28.1,-6.54 -35.16,-4.48 -66.71,-9.48 -41.15,-6.53 -25.77,-15.16 -60.29,-24.38 -7.81,29.27 -4.59,26.05 -33.87,33.86z"/>
   <path class="fil0" d="M14274.78 6029.47c0,52.37 12.42,71.19 59.86,75.62 77.23,7.22 65.24,-18.8 111.72,32.21 56.42,61.91 26.7,20.06 96.81,38.66 46.96,12.45 7.83,31.31 112.61,31.31 42.96,81.19 152.4,92.25 152.4,33.87 0,-50.34 5.53,-63.27 -53.04,-73.95 -71.6,-13.07 -25.41,-7.73 -64.42,-28.72 -31.19,-16.79 -49.02,0.53 -81.42,-11.72l-49.64 -43.5c-28.17,-25.73 -26.84,-19.11 -70.67,-17.82 -22.44,0.66 -6.5,8.25 -26.24,-4.68 -34.41,-22.53 -1.39,-24.19 -60.95,-31.28 -39.47,-4.71 -11.82,7.38 -39.83,-10.99 -41.34,-27.11 -2.54,-22.87 -78.72,-22.87 -5.43,22.7 -8.47,15.96 -8.47,33.86z"/>
   <path class="fil0" d="M1794.92 788.61c22.48,30.68 9.59,2.93 45.36,22.38l21.69 20.64c38.54,41.51 57.68,40.63 88.61,55.33 42.62,20.27 0.17,12.2 54.63,21.56 41.77,7.18 58.3,0.46 69.11,40.96l93.14 0c59.89,113.2 189.91,89.92 211.66,8.47 -52.65,0 -31.98,2.79 -61.42,-23.25l-52 -24.2c-35.08,-15.94 -11.75,-26.37 -58.96,-31.7 -18.71,-2.1 -35.51,5.02 -70.7,1.08 -144.9,-16.23 -59.96,-108.2 -239.52,-108.2 -27.83,0 -83.78,8.39 -101.6,16.93z"/>
   <path class="fil0" d="M3505.19 1516.75c50.84,75.92 16.72,-7.41 87.23,56.7 14.39,13.08 10.52,10.55 27.34,23.46 49.48,38.02 37.93,20.49 87.38,31.15 36.42,7.85 58.23,65.26 119.78,-26.65 -7.97,-11.9 -10.76,-16.37 -22.58,-28.22 -49.51,-49.64 -31.4,18.85 -87.49,-64.91 -30.99,0 -58.85,4.96 -79.74,-4.92 -49.49,-23.4 23.76,-28.95 -148.85,-28.95 -8.97,-33.57 -133.61,-173.1 -147.52,-55.91 -7.57,63.78 37.54,58.14 57.33,69.89 23.89,14.19 12.53,26.48 55.54,29.14 13.63,0.84 36.65,-0.78 51.58,-0.78z"/>
   <path class="fil0" d="M9347.19 3955.14c4.11,15.42 13.4,32.6 23.2,44.54 35.43,43.17 8.59,-3.87 90.79,44.67l35.79 15.01c1.84,0.8 4.08,1.74 5.87,2.6l33.38 17.42c10.2,3.23 17.53,3.25 28.67,5.2 104.78,18.34 -7.85,31.43 188.7,31.43 22.97,98.6 162.24,91.45 211.66,67.73 -13.11,-32.47 4.65,-5.07 -24.78,-17.55 -57.7,-24.47 -6.02,-8.23 -88.51,-46.96 -1.75,-0.82 -3.85,-2.03 -5.56,-2.9 -65.41,-33.22 -34.07,-6.2 -69.45,-23.69 -40.11,-19.83 6.21,-26.94 -64.98,-36.61 -64.59,-8.78 -44.62,-14.93 -67.41,-25.72 -38.28,-18.13 -47.78,5.52 -83.52,-18.08 -10.38,-6.86 -8.4,-10.57 -22.69,-19.65 -26.74,-17 -25.88,-5.28 -54.27,-21.93 -44.63,-26.17 -3.54,-23.97 -94.56,-23.97 -13.34,0 -32.08,4.49 -42.33,8.46z"/>
   <path class="fil0" d="M10761.12 3608.01c0,50.74 151.41,135.62 172.87,191.2 31.97,82.83 15.05,36.52 79.09,107.17 62.4,68.85 10.06,26.78 81.74,53.73 13.41,5.04 18.27,12.34 30.37,20.43 18.54,-27.69 33.54,-26.36 42.33,-59.26 -46.73,-10.89 -34.23,-0.43 -63.7,-29.44l-50.15 -42.98c-45.61,-52.16 6.36,-64.18 -97.82,-88.45 0,-64.55 7.15,-39.45 -65.61,-112.18 -74.22,-74.19 -58.15,-82.55 -129.12,-82.55l0 42.33z"/>
   <path class="fil0" d="M12014.18 4937.28c104.92,0 -40.96,-146.46 -67.35,-169.71 -16.45,-14.5 -25.39,-14.57 -44.95,-31.25 -37.42,-31.94 -48.35,-71.93 -109.1,-119.51 -32.23,-25.25 -24.13,3.81 -24.13,-60.53 -22.55,-5.26 -38.88,-8.29 -58.46,-17.74 -35.84,-17.32 -8.47,-16.13 -68.54,-16.13 6.62,24.79 5.11,11.83 29.55,38.18l59.26 67.75c16.6,29.62 6.39,36 37.17,55.96 60.46,39.21 25.61,0.88 45.99,55.61 13.66,36.68 38.34,26.62 95.23,99.51 27.33,35.02 26.11,22.29 52.58,49.01 19.87,20.05 25.01,48.85 52.75,48.85z"/>
   <path class="fil0" d="M11150.59 4031.34c40.8,77.13 29.26,50.01 66.5,60.5 33.84,9.53 23.44,16.86 67.67,59.33 17.45,16.77 32.56,21.23 46.41,38.26 28.2,34.68 3.23,27.29 21.52,63.14 13.42,26.3 78.31,68.24 88.57,80.76 27.16,33.15 4.68,33.22 22.59,70.55 1.16,0.55 78.39,19.79 78.52,19.8 22.02,1.19 41.13,-17.67 48.48,-45.2 -36.32,-9.7 -18.58,-12.48 -44.78,-31.42 -18.51,-13.38 -33.3,-13.9 -56.82,-19.38 0,-10.61 0.96,-22.28 -1.28,-32.58l-13.69 -28.65c-12.03,-18.91 -19.2,-28.58 -35.92,-40.28 -30.62,-21.43 -42.09,-25.62 -67.77,-59.23l-140.8 -138.6c-30.1,-21.73 -50.52,-14.19 -79.2,3z"/>
   <path class="fil0" d="M12479.85 5462.21c33.38,8.91 17.21,6.21 39.32,28.42l105.25 81.01c95.13,30.12 -3.85,14.35 69.05,83.35 36.28,34.34 27.86,24.4 40.38,78.15 128.21,29.87 28.1,50.8 135.47,50.8 32.37,0 3.08,2.6 25.4,-8.47 -19.13,-71.64 -70.72,-43.71 -102.1,-75.69 -78.52,-80.02 -47.86,-85.63 -95.9,-132.71 -44.37,-43.5 -20.46,-51.65 -88.1,-89.7 -6.58,-3.69 -33.71,-15.56 -34.63,-16.17 -25.93,-17.03 -17.48,-28.43 -26.41,-66.72 -74.6,0 -67.73,-6.88 -67.73,67.73z"/>
   <path class="fil0" d="M12098.85 5013.48c0,63.79 -55.82,-4.3 -143.93,42.33 5.95,8.88 33.53,47.31 41.28,51.85 29.32,17.16 13.71,-3.78 57.56,18.64 64.62,33.05 61.13,-3.36 102.49,24.51 11.32,7.64 41.84,48.93 52.67,48.93 30.76,0 29.7,-10.04 59.26,-16.93l0 -50.8c-31.35,-8.37 -101.81,-99.28 -104.95,-106.71 -17.41,-41.18 14.49,-45.69 -64.38,-45.69l0 33.87z"/>
   <path class="fil0" d="M12276.65 5191.28c0,91.68 36.56,63.27 84.67,59.26 17.67,33.41 17.43,30.84 48.4,53.2 43.39,31.32 28.69,30.44 53.2,48.4 43.28,-31.71 -14.04,-33.86 93.13,-33.86 26.79,0 28.86,20.82 33.87,42.33 33.42,0 34.35,-2.66 59.26,-8.47 -11.91,-44.63 -38.5,-50.64 -60.27,-58.25 -77.95,-27.26 7.68,-22.48 -74.94,-43.6l-42.14 -17.13c-45.06,-20.19 -30.83,8.03 -73.99,-36.07 -24.97,-25.51 -19.75,-8.57 -28.06,-39.68 -53.14,4.42 0.39,12.08 -93.13,33.87z"/>
   <path class="fil0" d="M4800.59 2084.01c60.38,-40.43 56.66,-43.92 59.26,-67.73 -42.2,-20.25 -40.39,12.34 -106.38,-54.48 -22.55,-22.83 -21.15,-20.92 -53.89,-22.32 -26.25,-1.11 -58.24,0.6 -85.26,0.6 -8.8,32.98 -18.97,28.01 -25.07,42.21 -5.49,12.78 -10.6,-5.98 -0.92,11.46 14.76,26.56 7.71,-9.68 60.47,38.85 7.05,6.5 0.92,5.11 13.88,11.52 23.71,11.73 43.86,2.63 69.19,7.01 38.77,6.69 19.47,21.41 68.72,32.88z"/>
   <path class="fil0" d="M1439.32 644.68c10.32,15.4 23.46,32.2 39.54,45.13 62.83,50.55 107.95,-46.95 180.6,90.34 30.29,0 108.16,-7.9 127,-16.94 -7.26,-10.83 -41.37,-41.5 -52.89,-48.71 -42.07,-26.34 -45.31,7.29 -85.31,-24.76 -57.06,-45.72 5.54,-20.14 -88.82,-63.57 -20.36,-9.38 -16.59,-11.19 -35.45,-23.82 -22.39,30.56 -49.35,25.39 -84.67,42.33z"/>
   <path class="fil0" d="M10261.59 4361.54c19.98,9.59 22.96,5.77 45.55,13.71l50.81 25.4c7.08,2.91 11.57,-1.13 28.71,13.62 11.81,10.17 3.34,54.7 137.39,23.47 23.51,35.11 35.06,26.91 62.87,64.14 29.77,39.86 26.65,37.46 89.53,37.46l-24.96 -42.77c-15.23,-21.64 -9.73,-22.21 -42.77,-24.96 0,-145.46 -116.73,0.3 -143.93,-101.6l-84.46 10.03c-33.33,2.97 17.94,-43.9 -84.88,-43.9 -21.14,0 -26.56,11.92 -33.86,25.4z"/>
   <path class="fil0" d="M3657.59 4734.08c0,30.1 16.49,25.4 50.8,25.4 33.99,0 3.38,2.34 21.38,-12.49 0.05,-0.04 16.4,-16.59 16.84,-17.03l29.82 -29.44c1.25,-1.22 3.21,-2.79 4.44,-4.03 34.08,-34.32 12.12,-7.34 23.38,-52.82 8.45,-34.11 14.3,-22.19 22.67,-53.53 -74.2,-17.76 -21.86,-8.91 -98.35,28.65 -24.76,12.15 -20.11,-0.74 -35.49,40.71 -16.69,44.98 -35.49,49.08 -35.49,74.58z"/>
   <path class="fil0" d="M3835.39 4513.94c0,19.8 -2.5,67.74 25.4,67.74 91.05,0 5.97,-110.07 143.93,-110.07l8.47 -67.73c-28.1,0 -37.57,-1.61 -55.54,12.2 -36.39,27.96 15.81,14.28 -45.93,30.26 -34.31,8.88 -14.66,-6.87 -45.39,22.34 -12.31,11.71 -30.94,27.05 -30.94,45.26z"/>
   <path class="fil0" d="M10075.32 4268.41c7.26,27.19 53.56,67.73 76.2,67.73 65.54,0 46.92,4.27 101.6,-8.46 -4.75,-13.14 -5.12,-10.15 -8.99,-16.41l-33.34 -51.33c-70.46,16.42 -122.82,-13.24 -135.47,8.47z"/>
   <path class="fil0" d="M14105.45 5944.81l0 33.86c54.94,26.36 39.95,-17.71 76.2,50.8 68.37,0 67.73,5.66 67.73,-42.33 0,-36.32 -25.08,-28.69 -58.08,-35.05 -32.28,-6.22 -5.8,1.83 -33.84,-16.96 -9.63,-6.45 -52.01,-37.6 -52.01,9.68z"/>
   <path class="fil0" d="M13927.65 5877.07c0,27.99 3.73,22.64 20.21,47.52 11.41,17.23 13.11,20.11 22.12,37.15 142.37,0 25.4,-110.07 0,-110.07 -27.46,0 -42.33,-3.33 -42.33,25.4z"/>
   <path class="fil0" d="M3479.79 4878.01c0,31.89 5.57,16.01 8.47,50.8l59.26 0c7.82,-29.27 4.6,-26.05 33.87,-33.87l0 -59.26c-27.36,-6.38 -101.6,-24.43 -101.6,42.33z"/>
   <path class="fil0" d="M10811.92 4607.08c1.7,-76.25 36.28,-66.81 -21.08,-105.92 -28.72,-19.59 -12.21,-21.08 -55.12,-21.08 -35.72,53.34 -42.16,47.74 76.2,127z"/>
   <path class="fil0" d="M5156.19 4353.08c14.34,27.1 18.97,28.56 33.86,50.8 34.26,-22.95 73.96,-53.01 84.67,-93.14 -47.8,-26.85 -89.95,-0.34 -118.53,42.34z"/>
   <path class="fil0" d="M5323.87 4283.76c44.36,65.36 35.28,57.78 94.78,43.92 11.11,-46.39 26.62,-41.29 -50.8,-93.14l-43.98 49.22z"/>
   <path class="fil0" d="M4470.39 1906.21c0,33.43 2.66,34.36 8.46,59.27 51.81,12.07 41.33,12.07 93.14,0l0 -50.8c-34.46,-16.53 -63.39,-23.3 -101.6,-8.47z"/>
   <path class="fil0" d="M4140.19 4801.81c-27.01,-12.96 -32.26,-12.96 -59.27,0 10.46,39.18 30.56,34.05 75.54,24.9 27.4,-5.58 15.66,-3.85 38.52,-20.91 24.93,-18.61 21.38,-6.05 29.87,-37.86 -26.09,-12.52 -31.04,-8.46 -67.73,-8.46 -5.19,22.26 -7.7,24.88 -16.93,42.33z"/>
   <path class="fil0" d="M4817.52 3472.54c10.64,22.18 9.74,50.8 42.33,50.8 44.27,0 33.87,-53.06 33.87,-101.6 -45.74,1.02 -13.3,-6.78 -58.58,34.56 -1.27,1.16 -3.28,2.84 -4.51,3.96l-13.11 12.28z"/>
   <path class="fil0" d="M5469.45 4259.94c45.4,10.58 45,17.01 93.14,-8.46l0 -42.34c-38.73,-20.49 -73.14,-35.03 -93.14,50.8z"/>
   <path class="fil0" d="M4478.85 3819.68l0 50.8c24.92,5.8 25.85,8.46 59.27,8.46 6.92,-25.91 20.71,-39.61 33.87,-59.26 -45.47,-21.82 -56.5,-21.97 -93.14,0z"/>
   <path class="fil0" d="M13817.58 5843.21c0,70.59 76.2,70.59 76.2,0 0,-37.18 -76.2,-37.18 -76.2,0z"/>
   <path class="fil0" d="M1371.59 593.88c0,41.19 15.02,33.87 59.27,33.87 26.87,-115.35 -59.27,-61.66 -59.27,-33.87z"/>
   <path class="fil0" d="M3589.85 4793.34l0 42.34c66.48,0 44.96,3.98 76.2,-16.94 -14.24,-21.28 -42.34,-44.02 -67.73,-50.8 -5.8,10.33 -8.47,9.06 -8.47,25.4z"/>
   <path class="fil0" d="M13775.25 5843.21c14.29,-29.79 14.69,-29.89 8.47,-59.27l-67.74 0c2.76,33.17 19.53,48.66 59.27,59.27z"/>
   <path class="fil0" d="M10007.59 4243.01c0,41.81 45.46,22.12 67.73,16.93 -7.79,-29.17 -28.89,-44.59 -50.8,-59.26 -5.66,10.69 -16.93,27.99 -16.93,42.33z"/>
   <path class="fil0" d="M5596.45 4183.74c0,14.34 11.28,31.64 16.94,42.34 21.9,-14.67 43.01,-30.1 50.8,-59.27 -24.91,-5.8 -25.84,-8.47 -59.27,-8.47 -2.63,9.93 -8.47,23.08 -8.47,25.4z"/>
   <path class="fil0" d="M13648.25 5783.94c21.23,0 50.8,4.11 50.8,-16.93 0,-23.4 -27.56,-40.91 -42.33,-50.8 -15.77,32.85 -16.44,33.52 -8.47,67.73z"/>
   <path class="fil0" d="M4258.72 4751.01c0,44.2 -2.96,10.82 8.47,33.87 27.95,-7.47 43.33,-22.85 50.8,-50.8 -19.86,-11.16 -59.27,-19.26 -59.27,16.93z"/>
   <path class="fil0" d="M4648.19 4556.28c0.25,2.26 -8.14,33.86 33.86,33.86 41.24,0 33.62,-31.61 33.87,-33.86 -25.91,-14.56 -60.66,-8.63 -67.73,0z"/>
   <path class="fil0" d="M4402.65 4691.74c0,32.89 28.05,25.4 59.27,25.4 -6.44,-24.11 -29.22,-44.81 -50.8,-59.26 -5.43,22.7 -8.47,15.96 -8.47,33.86z"/>
   <path class="fil0" d="M4368.79 3972.08c68.62,38.55 59.26,-34.72 59.26,-50.8 -29,7.74 -11.43,2.39 -29.34,21.45 -20.25,21.56 -12.23,5.21 -29.92,29.35z"/>
   <path class="fil0" d="M2199.44 5621.96c-42.38,0 -85.11,-4.55 -114.81,12.19 -30.66,17.28 -38.65,50.44 -75.03,60.44 -21.93,6.02 -32.8,0.66 -53.05,6.21 -30.94,8.48 -10.62,12.64 -42.33,25.41 -63.87,25.73 -95.78,-31.66 -95.78,73.55 -41.69,-0.93 -46.89,-2.59 -42.07,-48.59 3.26,-31.08 8.21,-42.02 8.21,-86.87 -145.83,0 -87.04,70.1 -118.54,101.6 -35.08,16.83 -29.12,-3.12 -61.78,22.88 -26.89,21.4 -106.7,111.04 -135.43,118.57 -39.49,10.36 -25.84,-9.92 -67.9,16.76 -16.37,10.39 3.17,3.06 -26.81,15.53l-30.42 11.91c-86.94,48.45 -44.15,13.96 -97.31,29.69 -27.65,8.18 -14.3,9.13 -31.57,19.24 -43.25,25.31 -21.08,-3.83 -62.59,22.07l-57.19 27.48c-32.75,14.86 -19.14,26.99 -43.96,40.7 -17.43,9.62 -12.43,1.47 -31.22,11.11 -36.25,18.62 7.63,3.68 -28.95,21.85 -22.98,11.42 -49.33,5.28 -78.96,5.72 -36.48,0.54 -95.46,26.92 -120.53,48.79 -22.85,19.93 -26.48,28.23 -39.78,53.36 -154.47,-22.69 -60.37,13.82 -135.46,33.87l0 33.86c39.02,3.25 23.08,6.85 50.8,25.4 51.29,-34.35 37.71,-10.99 67.73,-67.73 187.18,18.66 83.92,7.26 146.55,-22.78 75.29,-36.1 30.78,-7.25 65.12,-78.82 44.07,11.77 7.19,8.12 42.33,33.87l17.4 -33.62c70.29,-0.25 46.8,21.74 84.2,-34.11 128.15,0 23.36,-13.37 133.96,-43.84 18.01,-4.96 10.42,-2.71 24.17,-9.7 17.25,-8.78 48.84,-24.75 88.49,-18.68 35.9,5.49 15.85,28.73 15.85,72.22 101.07,0 62.72,-21.57 137.31,-91.29 20.51,-19.18 30.14,-21.23 51.21,-41.92 8.81,-8.66 11.82,-13.34 20.51,-21.83 23.87,-23.33 12.37,-13.01 43.96,-23.77 2.09,-0.72 4.5,-1.16 6.55,-1.92l76.46 -33.6c23.78,-8.81 15.47,-10.72 30.54,-20.26 33.62,-21.29 19.48,-4.92 55.34,-12.39l38.21 -29.53c8.47,-20.19 5.57,-20.63 5.57,-45.23 62.67,5.22 127.38,37.95 135.47,-59.26 160.16,0 121.86,-29.81 171.07,-40.6 18.08,-3.97 54.33,-1.74 74.46,-1.74 11.91,-22.5 18.48,-48.1 42.11,-59.49 40.98,-19.75 67.96,11.95 67.96,-42.11 0,-31.99 -28.82,-50.93 -80.6,-12.86 -24.31,17.87 -21.62,8.87 -29.47,38.26z"/>
   <path class="fil0" d="M12755.65 5741c33.38,8.91 17.21,6.21 39.32,28.42l105.25 81.01c95.13,30.12 -3.85,14.35 69.05,83.35 36.28,34.34 27.86,24.4 40.38,78.15 128.21,29.87 28.1,50.8 135.47,50.8 32.37,0 3.08,2.6 25.4,-8.47 -19.13,-71.64 -70.72,-43.71 -102.1,-75.69 -78.52,-80.02 -47.86,-85.63 -95.9,-132.71 -44.37,-43.5 -20.46,-51.65 -88.1,-89.7 -6.58,-3.69 -33.71,-15.56 -34.63,-16.17 -25.93,-17.03 -17.48,-28.43 -26.41,-66.72 -74.6,0 -67.73,-6.88 -67.73,67.73z"/>
   <path class="fil0" d="M13061.42 6080.75c33.38,8.91 17.21,6.21 39.32,28.42l105.25 81.01c95.13,30.12 -3.85,14.35 69.05,83.35 36.28,34.34 27.86,24.4 40.38,78.15 128.21,29.87 28.1,50.8 135.47,50.8 32.37,0 3.08,2.6 25.4,-8.47 -19.13,-71.64 -70.72,-43.71 -102.1,-75.69 -78.52,-80.02 -47.86,-85.63 -95.9,-132.71 -44.37,-43.5 -20.46,-51.65 -88.1,-89.7 -6.58,-3.69 -33.71,-15.56 -34.63,-16.17 -25.93,-17.03 -17.48,-28.43 -26.41,-66.72 -74.6,0 -67.73,-6.88 -67.73,67.73z"/>
   <path class="fil0" d="M638.23 7929.25c-25.8,-0.58 -30.87,-3.83 -50.8,-8.47 -22.68,42.85 -12.66,21.57 -55.05,63.49 -69.51,68.74 -2.56,26.21 -79.78,81.09 -20.18,14.34 -8,6.35 -21.93,20.4 -61.75,62.29 -26.84,46.56 -78.74,82.12 -52.67,36.09 -60.84,79.21 -60.84,142.37 -95.03,0 -16.85,-9.18 -119.33,50 -78.5,45.34 -48.01,27.22 -59.93,67.06 -9.52,31.82 1.65,4.79 -19.32,31.49 -1.07,1.37 -2.9,3.22 -3.89,4.57 -6.68,9.06 -4.54,-1.21 -9.19,16.21 64.77,43.38 50.94,3.29 128.25,-58.01 12.69,-10.07 18.76,-16.76 30.57,-28.7l165.06 -165.14c53.32,-52.69 70.46,-86.25 160.73,-169.47 27.46,-25.32 34.02,-21.18 57.54,-52.52 70.5,-93.94 93.42,-83.1 127.26,-143.68l77.84 -91.49c28.58,-27.37 29.93,-39.88 57.78,-52.29 30.02,-13.38 27.26,0.74 40.54,-35.66 17.34,-47.57 -1.42,-19.44 49.34,-35.32 34.6,-10.83 27.95,-17.27 27.95,-82.12 0,-30.1 -16.49,-25.4 -50.8,-25.4 -25.9,0 -11.01,2.77 -29.94,20.86 -1.26,1.2 -2.91,3.09 -4.15,4.32 -3.28,3.24 -8.67,8.38 -12.78,12.62l-63.68 63.31c-28.65,28.09 -6.52,29.92 -24.88,59.79 -9.23,15.02 0.86,-0.65 -12.3,13.1 -1.21,1.25 -3.16,2.84 -4.38,4.09l-118.97 118.1c-35.91,34.89 -27.56,19.3 -34.36,50.3 -3.79,17.25 -3.68,25.2 -7.82,42.98z"/>
   <path class="fil0" d="M1425.63 7014.85c-11.57,24.1 -3.68,27.9 -11.99,47.28 -9.04,21.06 2.77,-0.71 -10,15.39l-27.24 32.03c-22.49,32.19 -18.51,34.41 -18.51,74.63 -106.3,0 -99.91,63.84 -158.62,95.38 -29.13,15.65 -40.75,2.39 -53.04,14.69 -26.06,54.29 16.64,71.94 -35.65,125.21l-58.24 64.96c-0.5,6.04 -26.25,13.03 26.15,13.03 33.99,0 3.38,2.34 21.38,-12.49l235.44 -230.22c20.58,-29.73 10.45,-23.73 22.9,-53.31 24.79,-58.88 56.37,-26.71 120.24,-91.43 7.12,-7.21 9.33,-9.7 17.55,-16.31 76.94,-61.92 4.51,-52.27 111.17,-142.83 25.12,-21.32 44.77,-9.93 55.52,-20.68 24.81,-51.71 -9.12,-40.21 49.56,-85.91l170.14 -168.52c7.95,-10.89 17.46,-29.39 25.84,-41.9 -21.59,-14.46 -26.44,-14.51 -33.87,-42.33 -44.3,11.82 -19.07,21.08 -54.4,47.2 -110.6,81.77 -50.54,71.21 -97.53,122.6 -1.18,1.28 -3.13,2.87 -4.35,4.11l-77.12 75.28c-31.45,28.67 4.9,9.63 -37.9,21.37 -23.16,6.36 -22.1,-3.54 -35.02,15.78 -15.26,22.82 0.01,20.68 -12.27,46.99l-53.64 56.44c-1.21,1.25 -2.78,3.21 -4.02,4.44l-24.39 17.95c-21.79,8.17 -21.73,-1.48 -48.09,11.17z"/>
   <path class="fil0" d="M614.86 6305.46c0,52.37 -12.42,71.19 -59.86,75.62 -77.23,7.22 -65.24,-18.8 -111.72,32.21 -56.42,61.91 -26.7,20.06 -96.81,38.66 -46.96,12.45 -7.83,31.31 -112.61,31.31 -42.96,81.19 -152.4,92.25 -152.4,33.87 0,-50.34 -5.53,-63.27 53.04,-73.95 71.6,-13.07 25.41,-7.73 64.42,-28.72 31.19,-16.79 49.02,0.53 81.42,-11.72l49.64 -43.5c28.17,-25.73 26.84,-19.11 70.67,-17.82 22.44,0.66 6.5,8.25 26.24,-4.68 34.41,-22.53 1.39,-24.19 60.95,-31.28 39.47,-4.71 11.82,7.38 39.83,-10.99 41.34,-27.11 2.54,-22.87 78.72,-22.87 5.43,22.7 8.47,15.96 8.47,33.86z"/>
   <path class="fil0" d="M13586.04 6543.99c13.66,40.11 23.13,82.03 48.55,104.75 26.24,23.45 60.21,20.32 81.4,51.54 12.77,18.82 11.2,30.83 22.98,48.21 18,26.56 15.39,5.98 37.7,31.88 44.95,52.17 0.91,100.88 100.5,66.96 43.56,137.94 108.48,135.96 214.55,296.26 22.55,34.04 -1.06,27.66 37.75,58.87 15.12,12.15 1.88,-3.98 23.35,20.38l21.08 24.95c73.89,66.68 27.43,37.3 59.47,82.55 16.66,23.53 13.25,10.59 28.39,23.68 37.9,32.78 3.17,21.19 41.07,52.13l44.45 45.28c24.62,26.21 31.72,9.42 52.7,28.49 14.72,13.4 5.4,11.3 20.58,25.98 29.31,28.31 1.02,-8.41 30.01,20.36 18.22,18.07 20.91,44.99 30.87,72.9 12.27,34.36 56.26,81.68 85.04,98.36 26.24,15.21 35.26,15.97 63.34,20.46 28.32,153.54 32.54,52.69 75.73,117.31l32.05 -10.92c-9.5,-37.98 -0.95,-24.05 7.67,-56.27 -49.05,-37.48 -22.56,-32.16 -85.95,-42.28 -42.68,-183.21 -20.18,-81.78 -68.81,-131.39 -58.44,-59.63 -16.78,-26.8 -95.6,-36.23 -3.07,-45.51 5.37,-9.42 18.42,-50.99l-37.44 -5.63c-22.89,-66.46 5.49,-51.31 -59.43,-68.71 -41.31,-121.31 -20.19,-17.8 -84.69,-112.68 -10.5,-15.45 -5.92,-8.99 -16.97,-19.75 -13.87,-13.5 -39.17,-38.25 -46.21,-77.74 -4.92,-27.75 -97.26,-160.54 -123.61,-173.8 -11.04,-5.55 -16.44,-6.89 -27.28,-12.38 -29.78,-15.07 -16.29,-7.52 -36.67,-33.95 -1.36,-1.75 -2.55,-3.89 -3.93,-5.58l-56.46 -61.55c-16,-19.67 -15.13,-11.19 -29.02,-22.38 -32.05,-25.81 -13.98,-38.07 -69.84,-75.04 -21.84,-1.51 -21.32,1.38 -44.61,9.31 -15.26,-61.01 -5.14,-132.81 -99.77,-109.14 -51.63,-151.61 -67.5,-105.74 -93.58,-148.84 -9.58,-15.84 -19.16,-50.87 -25.65,-69.93 -25.14,-4.02 -51.49,-1.99 -69.89,-20.68 -31.9,-32.43 -10.59,-68.19 -61.77,-50.76 -30.28,10.31 -38.92,43.7 13.81,80.44 24.75,17.24 15.37,17.61 45.72,15.57z"/>
   <path class="fil0" d="M14855.82 6262.29c-9.99,28.99 -7.89,33.37 -13.95,59.44 40.16,9.33 89.24,17.77 125.86,-1.83 -13.06,-53.25 -61.22,-65.91 -111.91,-57.61z"/>
   <path class="fil0" d="M15021.01 6337.35c-17.41,77.05 -18.08,65.24 32.7,99.21 41.46,-23.59 48.34,-8.78 33.29,-100.74l-65.99 1.53z"/>
   <path class="fil0" d="M15137.88 6427.36c23.3,40.38 18.33,44.48 69.82,62.22l30.92 -28.93c-11.51,-42.28 -24.41,-77.34 -100.74,-33.29z"/>
   <path class="fil0" d="M15280.3 6468.02c-10.47,9.79 -15.4,29.85 -19.34,41.3 25.68,5.96 51.37,10.83 77.99,-3.42 -12.79,-22.15 -11.48,-24.65 -34.32,-49.06 -9.05,4.87 -22.64,9.59 -24.33,11.18z"/>
   <path class="fil0" d="M14778.08 7922.56c23.3,40.38 18.33,44.48 69.82,62.22l30.92 -28.93c-11.51,-42.28 -24.41,-77.34 -100.74,-33.29z"/>
  </g>
 </g>
</svg>
