<svg xmlns="http://www.w3.org/2000/svg" xmlns:xlink="http://www.w3.org/1999/xlink" preserveAspectRatio="xMidYMid meet" version="1.0" viewBox="24.3 29.1 1008.9 993.4" zoomAndPan="magnify" style="fill: rgb(0, 0, 0);" original_string_length="1211" width="38.54843262069802px" height="37.93715915991391px"><g><g fill-rule="evenodd" id="__id20_sz2oagwq7" transform="matrix(4.6321 0 0 4.6321 605.247 -163.603)" style="fill: rgb(237, 119, 129);"><rect height="59.846" ry="3.017" transform="rotate(90)" width="7.56" x="143.164" y="-45.042" style="fill: inherit;"/><path d="M -8.7958321,41.597434 -27.081538,42.083193 A 106.58929,106.58929 0 0 0 -121.45097,155.40186 106.58929,106.58929 0 0 0 -12.288644,254.55033 106.58929,106.58929 0 0 0 91.455927,149.74691 106.58929,106.58929 0 0 0 -8.7958321,41.597434 Z m -0.7622275,12.839528 a 93.738098,93.738098 0 0 1 88.1646426,95.110468 93.738098,93.738098 0 0 1 -91.236291,92.1675 93.738098,93.738098 0 0 1 -96.000852,-87.19415 93.738098,93.738098 0 0 1 82.991311,-99.656455 z" style="fill: inherit;"/><path d="m -13.824928,137.88 a 9.0714293,9.0714293 0 0 1 8.532058,9.20424 9.0714293,9.0714293 0 0 1 -8.829344,8.91945 9.0714293,9.0714293 0 0 1 -9.290387,-8.43817 9.0714293,9.0714293 0 0 1 8.031417,-9.64418" style="fill: inherit;"/><rect height="74.965" ry="3.78" width="7.56" x="-18.143" y="70.151" style="fill: inherit;"/></g></g></svg>