<?xml version="1.0" encoding="UTF-8"?>
<!DOCTYPE svg PUBLIC "-//W3C//DTD SVG 1.1//EN" "http://www.w3.org/Graphics/SVG/1.1/DTD/svg11.dtd">
<!-- Creator: CorelDRAW -->
<svg xmlns="http://www.w3.org/2000/svg" xml:space="preserve" width="25.799mm" height="12.65mm" version="1.1" style="shape-rendering:geometricPrecision; text-rendering:geometricPrecision; image-rendering:optimizeQuality; fill-rule:evenodd; clip-rule:evenodd"
viewBox="0 0 2579.9 1265"
 xmlns:xlink="http://www.w3.org/1999/xlink"
 xmlns:xodm="http://www.corel.com/coreldraw/odm/2003">
 <defs>
  <style type="text/css">
   <![CDATA[
    .fil0 {fill:url(#id0)}
    .fil1 {fill:url(#id1)}
   ]]>
  </style>
  <linearGradient id="id0" gradientUnits="userSpaceOnUse" x1="209.24" y1="696.49" x2="2345.38" y2="788.41">
   <stop offset="0" style="stop-opacity:1; stop-color:#F1E1B3"/>
   <stop offset="0.631373" style="stop-opacity:1; stop-color:#E3CE9A"/>
   <stop offset="1" style="stop-opacity:1; stop-color:#F4E1B3"/>
  </linearGradient>
  <linearGradient id="id1" gradientUnits="userSpaceOnUse" x1="2656.13" y1="1132.37" x2="202.19" y2="145.73">
   <stop offset="0" style="stop-opacity:1; stop-color:#8E6639"/>
   <stop offset="0.231373" style="stop-opacity:1; stop-color:#A98D5C"/>
   <stop offset="0.560784" style="stop-opacity:1; stop-color:#A36A3A"/>
   <stop offset="1" style="stop-opacity:1; stop-color:#D5B36F"/>
  </linearGradient>
 </defs>
 <g id="Capa_x0020_1">
  <metadata id="CorelCorpID_0Corel-Layer"/>
  <g id="_2468378081824">
   <path class="fil0" d="M-0.02 569.51c2.66,3.93 5.4,7.94 8.25,12.04 502.34,723.15 1535.39,931.1 2229.48,337.68 155.92,-133.3 267.76,-255.46 342.21,-346.92l0 -396.06c-72.49,158.1 -224.1,422.42 -486.2,600.93 -395.6,269.44 -1079.9,316.49 -1558.9,44.91 -323.25,-183.27 -472.16,-453.19 -534.84,-609.36l0 356.78z"/>
   <path class="fil1" d="M-0.02 111.28c66.28,183.1 406.81,958.28 1396.84,870.74 774.26,-68.46 1070.15,-573.18 1175.65,-982.02l7.45 0 0 253.45c-185.89,387.83 -556.61,832.2 -1289.19,834.25 -565.9,1.57 -1036.76,-275.57 -1290.75,-786.54l0 -189.88z"/>
  </g>
 </g>
</svg>
